<?xml version="1.0" encoding="UTF-8"?>
<svg xmlns="http://www.w3.org/2000/svg" xmlns:xlink="http://www.w3.org/1999/xlink" width="32px" height="32px" viewBox="0 0 32 32" version="1.1">
<g id="surface1">
<path style=" stroke:none;fill-rule:nonzero;fill:rgb(98.823529%,98.823529%,98.823529%);fill-opacity:1;" d="M 15.417969 0.648438 L 16.289062 0.648438 L 17.273438 0.691406 L 17.964844 0.761719 L 18.679688 0.871094 L 19.441406 1.027344 L 20.199219 1.230469 L 20.738281 1.40625 L 21.699219 1.765625 L 22.503906 2.121094 L 22.859375 2.300781 L 23.375 2.570312 L 23.910156 2.882812 L 24.335938 3.152344 L 24.691406 3.398438 L 25.117188 3.710938 L 25.429688 3.957031 L 25.71875 4.179688 L 25.964844 4.378906 L 26.257812 4.648438 L 26.4375 4.804688 L 27.152344 5.519531 L 27.308594 5.699219 L 27.53125 5.945312 L 27.730469 6.191406 L 28.023438 6.546875 L 28.359375 6.996094 L 28.648438 7.417969 L 28.960938 7.910156 L 29.296875 8.46875 L 29.476562 8.78125 L 29.699219 9.25 L 29.878906 9.609375 L 30.144531 10.234375 L 30.4375 11.015625 L 30.636719 11.640625 L 30.925781 12.894531 L 31.0625 13.652344 L 31.152344 14.347656 L 31.195312 15.039062 L 31.195312 17.25 L 31.152344 17.808594 L 31.0625 18.503906 L 30.90625 19.308594 L 30.703125 20.113281 L 30.414062 21.027344 L 30.144531 21.742188 L 29.855469 22.414062 L 29.609375 22.925781 L 29.339844 23.417969 L 29.050781 23.933594 L 28.691406 24.492188 L 28.402344 24.917969 L 28.132812 25.273438 L 27.6875 25.832031 L 27.417969 26.144531 L 27.152344 26.4375 L 26.949219 26.660156 L 26.523438 27.082031 L 26.347656 27.238281 L 26.054688 27.507812 L 25.878906 27.664062 L 25.585938 27.910156 L 25.230469 28.179688 L 24.804688 28.492188 L 24.066406 28.984375 L 23.597656 29.273438 L 23.039062 29.585938 L 22.367188 29.921875 L 21.808594 30.167969 L 21.117188 30.4375 L 20.582031 30.636719 L 19.867188 30.839844 L 19.0625 31.039062 L 18.347656 31.171875 L 17.675781 31.261719 L 17.320312 31.285156 L 14.570312 31.285156 L 13.988281 31.238281 L 13.339844 31.152344 L 12.535156 30.996094 L 11.597656 30.75 L 10.792969 30.480469 L 10.121094 30.234375 L 9.5625 29.988281 L 9.003906 29.71875 L 8.402344 29.40625 L 8.066406 29.207031 L 7.574219 28.894531 L 7.238281 28.671875 L 6.859375 28.402344 L 6.59375 28.199219 L 6.300781 27.976562 L 6.054688 27.777344 L 5.832031 27.574219 L 5.652344 27.417969 L 5.386719 27.171875 L 5.050781 26.859375 L 4.714844 26.523438 L 4.558594 26.347656 L 4.289062 26.054688 L 4.089844 25.808594 L 3.800781 25.453125 L 3.53125 25.09375 L 3.261719 24.714844 L 2.996094 24.3125 L 2.703125 23.84375 L 2.414062 23.328125 L 2.144531 22.839844 L 1.808594 22.101562 L 1.496094 21.320312 L 1.230469 20.515625 L 1.050781 19.910156 L 0.847656 19.039062 L 0.714844 18.257812 L 0.625 17.429688 L 0.601562 17.050781 L 0.601562 14.679688 L 0.648438 14.121094 L 0.761719 13.363281 L 0.917969 12.582031 L 1.074219 11.957031 L 1.273438 11.285156 L 1.519531 10.570312 L 1.808594 9.855469 L 2.054688 9.320312 L 2.503906 8.46875 L 2.816406 7.957031 L 3.082031 7.53125 L 3.328125 7.171875 L 3.621094 6.769531 L 3.867188 6.457031 L 4.179688 6.078125 L 4.445312 5.765625 L 4.761719 5.429688 L 5.09375 5.074219 L 5.273438 4.894531 L 5.320312 4.894531 L 5.320312 4.847656 L 5.496094 4.691406 L 5.789062 4.425781 L 6.035156 4.222656 L 6.324219 3.976562 L 6.703125 3.6875 L 7.105469 3.398438 L 7.710938 2.996094 L 8.15625 2.726562 L 8.691406 2.4375 L 9.074219 2.234375 L 9.699219 1.945312 L 10.234375 1.71875 L 10.769531 1.519531 L 11.574219 1.25 L 12.089844 1.09375 L 13.003906 0.894531 L 13.542969 0.804688 L 13.988281 0.738281 L 14.90625 0.671875 Z M 15.417969 0.648438 "/>
<path style=" stroke:none;fill-rule:nonzero;fill:rgb(0.784314%,0.784314%,0.784314%);fill-opacity:1;" d="M 15.417969 0.648438 L 16.289062 0.648438 L 17.273438 0.691406 L 17.964844 0.761719 L 18.679688 0.871094 L 19.441406 1.027344 L 20.199219 1.230469 L 20.738281 1.40625 L 21.699219 1.765625 L 22.503906 2.121094 L 22.859375 2.300781 L 23.375 2.570312 L 23.910156 2.882812 L 24.335938 3.152344 L 24.691406 3.398438 L 25.117188 3.710938 L 25.429688 3.957031 L 25.71875 4.179688 L 25.964844 4.378906 L 26.257812 4.648438 L 26.4375 4.804688 L 27.152344 5.519531 L 27.308594 5.699219 L 27.53125 5.945312 L 27.730469 6.191406 L 28.023438 6.546875 L 28.359375 6.996094 L 28.648438 7.417969 L 28.960938 7.910156 L 29.296875 8.46875 L 29.476562 8.78125 L 29.699219 9.25 L 29.878906 9.609375 L 30.144531 10.234375 L 30.4375 11.015625 L 30.636719 11.640625 L 30.925781 12.894531 L 31.0625 13.652344 L 31.152344 14.347656 L 31.195312 15.039062 L 31.195312 17.25 L 31.152344 17.808594 L 31.0625 18.503906 L 30.90625 19.308594 L 30.703125 20.113281 L 30.414062 21.027344 L 30.144531 21.742188 L 29.855469 22.414062 L 29.609375 22.925781 L 29.339844 23.417969 L 29.050781 23.933594 L 28.691406 24.492188 L 28.402344 24.917969 L 28.132812 25.273438 L 27.6875 25.832031 L 27.417969 26.144531 L 27.152344 26.4375 L 26.949219 26.660156 L 26.523438 27.082031 L 26.347656 27.238281 L 26.054688 27.507812 L 25.878906 27.664062 L 25.585938 27.910156 L 25.230469 28.179688 L 24.804688 28.492188 L 24.066406 28.984375 L 23.597656 29.273438 L 23.039062 29.585938 L 22.367188 29.921875 L 21.808594 30.167969 L 21.117188 30.4375 L 20.582031 30.636719 L 19.867188 30.839844 L 19.0625 31.039062 L 18.347656 31.171875 L 17.675781 31.261719 L 17.320312 31.285156 L 14.570312 31.285156 L 13.988281 31.238281 L 13.339844 31.152344 L 12.535156 30.996094 L 11.597656 30.75 L 10.792969 30.480469 L 10.121094 30.234375 L 9.5625 29.988281 L 9.003906 29.71875 L 8.402344 29.40625 L 8.066406 29.207031 L 7.574219 28.894531 L 7.238281 28.671875 L 6.859375 28.402344 L 6.59375 28.199219 L 6.300781 27.976562 L 6.054688 27.777344 L 5.832031 27.574219 L 5.652344 27.417969 L 5.386719 27.171875 L 5.050781 26.859375 L 4.714844 26.523438 L 4.558594 26.347656 L 4.289062 26.054688 L 4.089844 25.808594 L 3.800781 25.453125 L 3.53125 25.09375 L 3.261719 24.714844 L 2.996094 24.3125 L 2.703125 23.84375 L 2.414062 23.328125 L 2.144531 22.839844 L 1.808594 22.101562 L 1.496094 21.320312 L 1.230469 20.515625 L 1.050781 19.910156 L 0.847656 19.039062 L 0.714844 18.257812 L 0.625 17.429688 L 0.601562 17.050781 L 0.601562 14.679688 L 0.648438 14.121094 L 0.761719 13.363281 L 0.917969 12.582031 L 1.074219 11.957031 L 1.273438 11.285156 L 1.519531 10.570312 L 1.808594 9.855469 L 2.054688 9.320312 L 2.503906 8.46875 L 2.816406 7.957031 L 3.082031 7.53125 L 3.328125 7.171875 L 3.621094 6.769531 L 3.867188 6.457031 L 4.179688 6.078125 L 4.445312 5.765625 L 4.761719 5.429688 L 5.09375 5.074219 L 5.273438 4.894531 L 5.320312 4.894531 L 5.320312 4.847656 L 5.496094 4.691406 L 5.789062 4.425781 L 6.035156 4.222656 L 6.324219 3.976562 L 6.703125 3.6875 L 7.105469 3.398438 L 7.710938 2.996094 L 8.15625 2.726562 L 8.691406 2.4375 L 9.074219 2.234375 L 9.699219 1.945312 L 10.234375 1.71875 L 10.769531 1.519531 L 11.574219 1.25 L 12.089844 1.09375 L 13.003906 0.894531 L 13.542969 0.804688 L 13.988281 0.738281 L 14.90625 0.671875 Z M 15.53125 1.429688 L 14.792969 1.476562 L 13.945312 1.5625 L 13.09375 1.699219 L 12.402344 1.855469 L 11.753906 2.035156 L 10.792969 2.347656 L 10.347656 2.546875 L 9.789062 2.792969 L 9.339844 3.015625 L 8.847656 3.285156 L 8.359375 3.597656 L 7.886719 3.910156 L 7.507812 4.179688 L 7.21875 4.402344 L 6.90625 4.648438 L 6.523438 4.960938 L 6.28125 5.183594 L 6.234375 5.207031 L 6.234375 5.25 L 6.144531 5.296875 L 5.945312 5.496094 L 5.765625 5.652344 L 5.585938 5.832031 L 5.585938 5.878906 L 5.542969 5.878906 L 5.386719 6.054688 L 4.984375 6.503906 L 4.78125 6.75 L 4.535156 7.039062 L 4.269531 7.398438 L 3.957031 7.820312 L 3.597656 8.359375 L 3.398438 8.691406 L 3.105469 9.183594 L 2.792969 9.789062 L 2.523438 10.347656 L 2.210938 11.105469 L 1.945312 11.910156 L 1.699219 12.828125 L 1.542969 13.585938 L 1.519531 13.699219 L 1.519531 13.855469 L 6.035156 13.855469 L 6.101562 13.652344 L 6.257812 13.074219 L 6.503906 12.359375 L 6.75 11.777344 L 6.972656 11.328125 L 7.285156 10.792969 L 7.574219 10.324219 L 7.867188 9.921875 L 8.042969 9.699219 L 8.246094 9.453125 L 8.78125 8.871094 L 9.207031 8.445312 L 9.386719 8.289062 L 9.765625 7.976562 L 10.144531 7.710938 L 10.523438 7.464844 L 10.816406 7.285156 L 11.21875 7.0625 L 11.554688 6.882812 L 12.113281 6.636719 L 12.714844 6.414062 L 13.320312 6.234375 L 13.945312 6.101562 L 14.636719 5.988281 L 15.128906 5.945312 L 15.710938 5.921875 L 16.179688 5.921875 L 16.761719 5.945312 L 17.496094 6.035156 L 17.699219 6.078125 L 17.789062 6.078125 L 17.632812 6.257812 L 17.429688 6.367188 L 17.273438 6.59375 L 16.691406 6.546875 L 16.042969 6.523438 L 15.574219 6.523438 L 14.859375 6.570312 L 14.121094 6.679688 L 13.609375 6.792969 L 13.027344 6.949219 L 12.222656 7.238281 L 11.6875 7.484375 L 11.152344 7.777344 L 10.679688 8.066406 L 10.300781 8.335938 L 10.011719 8.558594 L 9.699219 8.828125 L 9.476562 9.027344 L 9.207031 9.273438 L 8.894531 9.585938 L 8.691406 9.832031 L 8.46875 10.101562 L 8.179688 10.503906 L 7.933594 10.839844 L 7.664062 11.261719 L 7.351562 11.867188 L 7.128906 12.359375 L 6.882812 13.003906 L 6.726562 13.542969 L 6.660156 13.832031 L 6.882812 13.855469 L 6.949219 13.832031 L 7.152344 13.140625 L 7.351562 12.582031 L 7.621094 11.976562 L 7.910156 11.417969 L 8.269531 10.839844 L 8.492188 10.523438 L 8.78125 10.144531 L 8.984375 9.921875 L 9.140625 9.742188 L 9.808594 9.074219 L 10.054688 8.871094 L 10.367188 8.625 L 10.769531 8.335938 L 11.21875 8.066406 L 11.574219 7.867188 L 11.933594 7.6875 L 12.402344 7.464844 L 12.847656 7.308594 L 13.40625 7.128906 L 13.898438 6.996094 L 14.703125 6.859375 L 15.128906 6.816406 L 16.113281 6.792969 L 16.917969 6.839844 L 17.230469 6.859375 L 17.207031 7.128906 L 17.074219 7.398438 L 17.074219 7.621094 L 17.160156 7.957031 L 17.296875 8.199219 L 17.320312 8.492188 L 16.714844 8.402344 L 15.328125 8.402344 L 14.523438 8.535156 L 13.945312 8.714844 L 13.386719 8.9375 L 12.917969 9.160156 L 12.46875 9.429688 L 12.042969 9.742188 L 11.753906 9.988281 L 11.484375 10.234375 L 11.285156 10.4375 L 10.882812 10.925781 L 10.613281 11.308594 L 10.324219 11.800781 L 10.144531 12.15625 L 10.011719 12.46875 L 9.832031 13.003906 L 9.699219 13.542969 L 9.632812 14.035156 L 9.609375 14.390625 L 9.609375 15.261719 L 9.652344 15.820312 L 9.765625 16.402344 L 9.921875 16.9375 L 10.121094 17.429688 L 10.390625 17.988281 L 10.703125 18.480469 L 10.925781 18.792969 L 11.105469 19.015625 L 11.417969 19.351562 L 11.710938 19.640625 L 11.886719 19.800781 L 12.335938 20.132812 L 12.671875 20.359375 L 12.738281 20.425781 L 12.535156 20.847656 L 12.359375 21.363281 L 12.222656 21.832031 L 12.113281 22.390625 L 12.042969 22.679688 L 11.777344 23.21875 L 11.621094 23.441406 L 11.417969 23.777344 L 11.328125 23.957031 L 11.238281 23.933594 L 10.90625 23.730469 L 10.390625 23.375 L 10.101562 23.128906 L 9.855469 22.925781 L 9.542969 22.636719 L 9.363281 22.480469 L 9.027344 22.121094 L 8.828125 21.898438 L 8.582031 21.585938 L 8.289062 21.183594 L 8.023438 20.761719 L 7.753906 20.289062 L 7.574219 19.933594 L 7.375 19.484375 L 7.105469 18.726562 L 6.925781 18.078125 L 6.882812 18.011719 L 6.660156 18.011719 L 6.636719 18.054688 L 6.769531 18.636719 L 6.996094 19.308594 L 7.195312 19.800781 L 7.574219 20.582031 L 7.84375 21.027344 L 8.023438 21.296875 L 8.246094 21.609375 L 8.535156 21.988281 L 8.78125 22.28125 L 9.027344 22.546875 L 9.363281 22.882812 L 9.542969 23.039062 L 9.878906 23.328125 L 10.257812 23.621094 L 10.660156 23.910156 L 11.195312 24.246094 L 11.21875 24.289062 L 11.171875 24.46875 L 11.152344 24.671875 L 11.152344 24.894531 L 10.503906 24.515625 L 10.078125 24.222656 L 9.789062 24 L 9.40625 23.6875 L 9.117188 23.441406 L 8.3125 22.636719 L 8.113281 22.390625 L 7.800781 21.988281 L 7.554688 21.632812 L 7.238281 21.160156 L 6.925781 20.601562 L 6.703125 20.132812 L 6.457031 19.53125 L 6.234375 18.859375 L 6.035156 18.054688 L 5.988281 18.011719 L 1.496094 18.011719 L 1.519531 18.257812 L 1.652344 18.996094 L 1.878906 19.867188 L 2.191406 20.828125 L 2.4375 21.429688 L 2.660156 21.945312 L 3.039062 22.703125 L 3.351562 23.238281 L 3.621094 23.6875 L 3.84375 24 L 4.023438 24.269531 L 4.335938 24.691406 L 4.582031 25.003906 L 4.871094 25.363281 L 5.140625 25.675781 L 5.453125 26.011719 L 6.121094 26.679688 L 6.300781 26.839844 L 6.546875 27.0625 L 6.859375 27.308594 L 7.21875 27.597656 L 7.640625 27.910156 L 8.023438 28.179688 L 8.359375 28.402344 L 8.984375 28.78125 L 9.585938 29.09375 L 10.367188 29.453125 L 11.328125 29.832031 L 12.089844 30.078125 L 12.828125 30.257812 L 13.5625 30.390625 L 14.414062 30.503906 L 14.90625 30.546875 L 15.308594 30.570312 L 16.3125 30.570312 L 17.160156 30.523438 L 17.945312 30.4375 L 18.75 30.300781 L 19.375 30.167969 L 20.023438 29.988281 L 20.738281 29.742188 L 21.386719 29.476562 L 21.789062 29.296875 L 22.457031 28.984375 L 23.039062 28.671875 L 23.285156 28.515625 L 23.597656 28.3125 L 23.957031 28.066406 L 24.335938 27.800781 L 24.648438 27.554688 L 24.871094 27.375 L 25.230469 27.082031 L 25.476562 26.882812 L 25.855469 26.523438 L 26.457031 25.921875 L 26.613281 25.742188 L 26.882812 25.453125 L 27.105469 25.160156 L 27.308594 24.917969 L 27.507812 24.648438 L 27.820312 24.222656 L 28.179688 23.710938 L 28.46875 23.21875 L 28.738281 22.75 L 29.003906 22.234375 L 29.296875 21.632812 L 29.5625 20.984375 L 29.71875 20.535156 L 29.921875 19.933594 L 30.191406 18.859375 L 30.324219 18.078125 L 30.324219 18.011719 L 25.808594 18.011719 L 25.742188 18.191406 L 25.5625 18.882812 L 25.339844 19.554688 L 25.140625 20.042969 L 24.871094 20.601562 L 24.601562 21.09375 L 24.359375 21.476562 L 24.066406 21.898438 L 23.753906 22.300781 L 23.554688 22.546875 L 23.328125 22.792969 L 23.171875 22.972656 L 22.636719 23.507812 L 22.390625 23.710938 L 22.035156 24 L 21.609375 24.3125 L 21.230469 24.558594 L 20.917969 24.738281 L 20.671875 24.871094 L 20.625 24.871094 L 20.761719 24.625 L 20.847656 24.289062 L 20.871094 24.089844 L 21.140625 23.910156 L 21.519531 23.640625 L 21.808594 23.417969 L 22.054688 23.21875 L 22.347656 22.972656 L 22.925781 22.390625 L 23.128906 22.144531 L 23.308594 21.945312 L 23.574219 21.585938 L 23.84375 21.207031 L 24.113281 20.78125 L 24.335938 20.378906 L 24.558594 19.910156 L 24.828125 19.261719 L 25.027344 18.660156 L 25.160156 18.121094 L 25.160156 18.011719 L 24.894531 18.035156 L 24.804688 18.367188 L 24.625 18.972656 L 24.425781 19.53125 L 24.066406 20.289062 L 23.800781 20.761719 L 23.441406 21.296875 L 23.21875 21.609375 L 22.972656 21.898438 L 22.769531 22.144531 L 22.144531 22.769531 L 21.964844 22.925781 L 21.675781 23.171875 L 21.363281 23.417969 L 21.140625 23.574219 L 20.871094 23.753906 L 20.828125 23.753906 L 20.738281 23.464844 L 20.601562 23.195312 L 20.359375 22.925781 L 20.15625 22.769531 L 19.976562 22.660156 L 19.710938 22.570312 L 19.53125 22.546875 L 19.152344 22.546875 L 18.839844 22.613281 L 18.570312 22.75 L 18.367188 22.90625 L 18.144531 23.128906 L 17.964844 23.417969 L 17.945312 23.507812 L 17.898438 23.507812 L 17.855469 23.285156 L 17.808594 23.152344 L 17.808594 23.015625 L 17.878906 22.90625 L 17.878906 22.660156 L 17.789062 22.300781 L 17.742188 22.191406 L 17.765625 22.054688 L 17.921875 21.808594 L 18.210938 21.453125 L 18.523438 21.074219 L 18.792969 20.761719 L 18.882812 20.648438 L 19.328125 20.378906 L 19.800781 20.066406 L 20.15625 19.800781 L 20.269531 19.710938 L 20.269531 19.664062 L 20.359375 19.621094 L 20.9375 19.039062 L 21.273438 18.59375 L 21.496094 18.257812 L 21.71875 17.878906 L 21.964844 17.363281 L 22.167969 16.804688 L 22.300781 16.335938 L 22.414062 15.753906 L 22.4375 15.464844 L 22.4375 14.210938 L 22.390625 13.765625 L 22.300781 13.320312 L 22.144531 12.78125 L 21.964844 12.289062 L 21.699219 11.730469 L 21.386719 11.21875 L 21.074219 10.792969 L 20.847656 10.546875 L 20.714844 10.347656 L 20.804688 9.945312 L 20.804688 9.542969 L 20.714844 9.273438 L 20.582031 9.09375 L 20.425781 8.960938 L 20.199219 8.847656 L 19.84375 8.761719 L 19.375 8.691406 L 19.53125 8.199219 L 19.554688 8.066406 L 19.507812 7.910156 L 19.621094 7.6875 L 19.621094 7.574219 L 19.976562 7.730469 L 20.445312 7.976562 L 20.828125 8.199219 L 21.207031 8.445312 L 21.609375 8.761719 L 21.832031 8.9375 L 22.28125 9.339844 L 22.75 9.808594 L 22.949219 10.054688 L 23.171875 10.324219 L 23.441406 10.679688 L 23.6875 11.0625 L 23.886719 11.398438 L 24.113281 11.800781 L 24.359375 12.3125 L 24.582031 12.894531 L 24.78125 13.519531 L 24.871094 13.832031 L 24.894531 13.855469 L 25.117188 13.855469 L 25.140625 13.808594 L 25.003906 13.296875 L 24.78125 12.625 L 24.535156 12.042969 L 24.269531 11.484375 L 24 11.015625 L 23.730469 10.636719 L 23.417969 10.191406 L 23.171875 9.878906 L 22.925781 9.609375 L 22.769531 9.429688 L 22.570312 9.230469 L 22.390625 9.074219 L 22.144531 8.847656 L 21.898438 8.648438 L 21.5625 8.378906 L 21.183594 8.113281 L 20.761719 7.84375 L 20.222656 7.554688 L 19.800781 7.328125 L 19.664062 7.261719 L 19.730469 6.816406 L 19.6875 6.660156 L 19.800781 6.679688 L 20.425781 6.972656 L 20.871094 7.21875 L 21.273438 7.464844 L 21.878906 7.867188 L 22.191406 8.113281 L 22.480469 8.359375 L 22.75 8.601562 L 23.082031 8.917969 L 23.441406 9.296875 L 23.710938 9.609375 L 24 9.988281 L 24.269531 10.367188 L 24.648438 10.996094 L 24.9375 11.53125 L 25.160156 12 L 25.40625 12.648438 L 25.585938 13.207031 L 25.742188 13.832031 L 25.765625 13.855469 L 30.257812 13.855469 L 30.300781 13.832031 L 30.234375 13.386719 L 30.054688 12.582031 L 29.855469 11.84375 L 29.585938 11.0625 L 29.320312 10.414062 L 29.027344 9.789062 L 28.761719 9.273438 L 28.46875 8.761719 L 28.179688 8.289062 L 27.933594 7.933594 L 27.664062 7.554688 L 27.308594 7.082031 L 27.015625 6.726562 L 26.613281 6.234375 L 26.570312 6.234375 L 26.523438 6.144531 L 25.71875 5.339844 L 25.542969 5.183594 L 25.320312 4.984375 L 25.074219 4.78125 L 24.738281 4.515625 L 24.378906 4.246094 L 23.957031 3.933594 L 23.484375 3.621094 L 23.0625 3.351562 L 22.59375 3.082031 L 21.945312 2.75 L 21.320312 2.480469 L 20.761719 2.257812 L 19.886719 1.988281 L 19.21875 1.808594 L 18.457031 1.652344 L 17.675781 1.542969 L 16.738281 1.453125 L 16.269531 1.429688 Z M 15.53125 1.429688 "/>
<path style=" stroke:none;fill-rule:nonzero;fill:rgb(81.960785%,83.92157%,87.058824%);fill-opacity:1;" d="M 1.496094 18.011719 L 5.988281 18.011719 L 6.035156 18.054688 L 6.234375 18.859375 L 6.457031 19.53125 L 6.660156 20.023438 L 6.90625 20.558594 L 7.171875 21.050781 L 7.375 21.363281 L 7.351562 22.882812 L 7.351562 25.207031 L 7.554688 25.339844 L 8.042969 25.632812 L 8.492188 25.898438 L 8.871094 26.121094 L 9.878906 26.726562 L 10.523438 27.105469 L 11.238281 27.53125 L 11.507812 27.6875 L 11.621094 27.640625 L 12.023438 27.417969 L 12.535156 27.128906 L 12.9375 26.90625 L 13.5625 26.546875 L 14.078125 26.257812 L 14.347656 26.101562 L 14.503906 26.035156 L 14.523438 26.011719 L 14.300781 25.964844 L 13.765625 25.878906 L 13.160156 25.71875 L 12.761719 25.585938 L 12.714844 25.5625 L 12.714844 25.496094 L 12.828125 25.386719 L 12.871094 25.230469 L 12.894531 25.003906 L 13.878906 25.25 L 14.660156 25.386719 L 15.398438 25.453125 L 16.15625 25.453125 L 16.671875 25.429688 L 17.320312 25.363281 L 18.035156 25.230469 L 18.257812 25.183594 L 18.390625 25.207031 L 18.613281 25.363281 L 18.925781 25.496094 L 19.082031 25.542969 L 19.0625 25.585938 L 18.703125 25.699219 L 18.101562 25.855469 L 17.898438 25.898438 L 17.765625 25.898438 L 17.765625 25.945312 L 17.878906 25.964844 L 18.191406 26.144531 L 18.546875 26.367188 L 19.753906 27.082031 L 20.46875 27.507812 L 20.761719 27.6875 L 20.894531 27.640625 L 21.496094 27.308594 L 21.878906 27.082031 L 22.414062 26.792969 L 22.882812 26.523438 L 23.398438 26.234375 L 24 25.898438 L 24.535156 25.585938 L 24.894531 25.386719 L 25.003906 25.320312 L 25.027344 24.582031 L 25.074219 21.789062 L 25.09375 20.246094 L 25.074219 20.199219 L 25.296875 19.664062 L 25.519531 19.039062 L 25.742188 18.191406 L 25.808594 18.011719 L 30.324219 18.011719 L 30.257812 18.503906 L 30.121094 19.152344 L 29.898438 20 L 29.632812 20.804688 L 29.40625 21.363281 L 29.160156 21.921875 L 28.78125 22.679688 L 28.46875 23.21875 L 28.179688 23.710938 L 27.867188 24.15625 L 27.574219 24.558594 L 27.285156 24.9375 L 27.082031 25.183594 L 26.839844 25.496094 L 26.570312 25.789062 L 26.257812 26.121094 L 25.652344 26.726562 L 25.476562 26.882812 L 25.160156 27.152344 L 24.847656 27.398438 L 24.515625 27.664062 L 24.089844 27.976562 L 23.597656 28.3125 L 23.238281 28.535156 L 22.949219 28.714844 L 22.414062 29.003906 L 21.609375 29.386719 L 21.003906 29.632812 L 20.425781 29.855469 L 19.800781 30.054688 L 18.996094 30.257812 L 18.257812 30.390625 L 17.40625 30.503906 L 16.871094 30.546875 L 16.3125 30.570312 L 15.308594 30.570312 L 14.636719 30.523438 L 13.878906 30.4375 L 13.074219 30.300781 L 12.445312 30.167969 L 11.867188 30.011719 L 11.152344 29.765625 L 10.324219 29.429688 L 9.453125 29.027344 L 8.9375 28.761719 L 8.425781 28.445312 L 8.15625 28.269531 L 7.730469 27.976562 L 7.351562 27.6875 L 6.996094 27.417969 L 6.613281 27.105469 L 6.300781 26.839844 L 5.921875 26.480469 L 5.25 25.808594 L 5.09375 25.632812 L 4.804688 25.296875 L 4.558594 24.984375 L 4.246094 24.582031 L 3.957031 24.179688 L 3.554688 23.574219 L 3.195312 22.972656 L 2.925781 22.480469 L 2.59375 21.808594 L 2.257812 21.003906 L 1.921875 20.023438 L 1.675781 19.082031 L 1.542969 18.390625 L 1.496094 18.144531 Z M 1.496094 18.011719 "/>
<path style=" stroke:none;fill-rule:nonzero;fill:rgb(81.960785%,83.92157%,87.058824%);fill-opacity:1;" d="M 11.574219 2.121094 L 11.777344 2.121094 L 12.113281 2.324219 L 12.535156 2.570312 L 12.871094 2.769531 L 12.960938 2.839844 L 12.917969 2.839844 L 12.917969 2.882812 L 12.492188 2.972656 L 12.535156 3.261719 L 12.894531 5.050781 L 12.894531 5.140625 L 13.160156 5.09375 L 13.453125 5.050781 L 13.320312 4.359375 L 13.320312 4.246094 L 13.386719 4.199219 L 14.191406 4.042969 L 14.28125 4.042969 L 14.234375 3.820312 L 14.234375 3.621094 L 14.457031 3.664062 L 14.546875 4.023438 L 14.636719 4.222656 L 14.726562 4.359375 L 14.816406 4.46875 L 15.039062 4.625 L 15.285156 4.738281 L 15.507812 4.78125 L 15.84375 4.804688 L 15.84375 5.878906 L 15.710938 5.921875 L 15.128906 5.945312 L 14.457031 6.011719 L 13.496094 6.191406 L 12.917969 6.347656 L 12.335938 6.546875 L 11.753906 6.792969 L 11.328125 6.996094 L 10.816406 7.285156 L 10.414062 7.53125 L 9.921875 7.867188 L 9.609375 8.113281 L 9.320312 8.359375 L 9.027344 8.625 L 8.601562 9.050781 L 8.445312 9.230469 L 8.179688 9.519531 L 8.023438 9.71875 L 7.800781 10.011719 L 7.53125 10.390625 L 7.152344 11.015625 L 6.859375 11.554688 L 6.636719 12.023438 L 6.414062 12.601562 L 6.191406 13.296875 L 6.054688 13.832031 L 6.035156 13.855469 L 1.519531 13.855469 L 1.519531 13.699219 L 1.675781 12.917969 L 1.898438 12.066406 L 2.078125 11.484375 L 2.257812 10.996094 L 2.546875 10.300781 L 2.816406 9.742188 L 3.015625 9.363281 L 3.152344 9.09375 L 3.417969 8.648438 L 3.664062 8.246094 L 3.976562 7.800781 L 4.199219 7.484375 L 4.515625 7.082031 L 4.761719 6.769531 L 4.960938 6.546875 L 5.160156 6.300781 L 5.339844 6.121094 L 5.496094 5.945312 L 5.542969 5.878906 L 5.585938 5.878906 L 5.632812 5.789062 L 5.898438 5.519531 L 6.078125 5.363281 L 6.191406 5.25 L 6.234375 5.25 L 6.234375 5.207031 L 6.414062 5.050781 L 6.703125 4.804688 L 7.015625 4.558594 L 7.375 4.269531 L 7.800781 3.976562 L 8.113281 3.753906 L 8.601562 3.441406 L 8.9375 3.238281 L 9.25 3.0625 L 9.609375 2.882812 L 10.078125 2.660156 L 10.457031 2.503906 L 10.792969 2.347656 L 11.328125 2.167969 L 11.507812 2.144531 Z M 11.574219 2.121094 "/>
<path style=" stroke:none;fill-rule:nonzero;fill:rgb(0.392157%,0.392157%,0.392157%);fill-opacity:1;" d="M 15.867188 6.769531 L 16.648438 6.792969 L 17.117188 6.839844 L 17.230469 6.859375 L 17.230469 7.128906 L 17.09375 7.398438 L 17.09375 7.621094 L 17.183594 7.957031 L 17.320312 8.199219 L 17.320312 8.492188 L 17.027344 8.46875 L 16.714844 8.425781 L 15.328125 8.425781 L 14.523438 8.558594 L 13.945312 8.738281 L 13.386719 8.960938 L 12.917969 9.183594 L 12.46875 9.453125 L 12.042969 9.765625 L 11.753906 10.011719 L 11.484375 10.257812 L 11.308594 10.4375 L 10.90625 10.925781 L 10.636719 11.308594 L 10.347656 11.800781 L 10.167969 12.15625 L 10.035156 12.46875 L 9.855469 13.003906 L 9.71875 13.542969 L 9.652344 14.035156 L 9.632812 14.390625 L 9.632812 15.261719 L 9.675781 15.820312 L 9.789062 16.402344 L 9.945312 16.9375 L 10.144531 17.429688 L 10.414062 17.988281 L 10.726562 18.480469 L 10.949219 18.792969 L 11.128906 19.015625 L 11.441406 19.351562 L 11.710938 19.621094 L 11.886719 19.777344 L 12.335938 20.113281 L 12.671875 20.335938 L 12.761719 20.425781 L 12.558594 20.847656 L 12.378906 21.363281 L 12.246094 21.832031 L 12.132812 22.390625 L 12.066406 22.679688 L 11.800781 23.21875 L 11.640625 23.441406 L 11.441406 23.777344 L 11.328125 23.976562 L 11.238281 23.957031 L 10.90625 23.753906 L 10.390625 23.398438 L 10.101562 23.152344 L 9.855469 22.949219 L 9.542969 22.660156 L 9.363281 22.503906 L 9.003906 22.121094 L 8.804688 21.898438 L 8.558594 21.585938 L 8.269531 21.183594 L 8 20.761719 L 7.730469 20.289062 L 7.554688 19.933594 L 7.351562 19.484375 L 7.082031 18.726562 L 6.90625 18.078125 L 6.882812 18.035156 L 6.679688 18.035156 L 6.59375 17.945312 L 6.480469 17.183594 L 6.414062 16.222656 L 6.414062 15.664062 L 6.480469 14.792969 L 6.570312 14.121094 L 6.636719 13.855469 L 6.949219 13.832031 L 6.972656 13.675781 L 7.152344 13.074219 L 7.375 12.46875 L 7.640625 11.886719 L 7.886719 11.417969 L 8.246094 10.839844 L 8.46875 10.523438 L 8.761719 10.144531 L 8.960938 9.921875 L 9.117188 9.742188 L 9.808594 9.050781 L 10.054688 8.847656 L 10.367188 8.601562 L 10.769531 8.3125 L 11.21875 8.042969 L 11.574219 7.84375 L 11.933594 7.664062 L 12.402344 7.441406 L 12.847656 7.285156 L 13.40625 7.105469 L 13.898438 6.972656 L 14.703125 6.839844 L 15.128906 6.792969 Z M 15.867188 6.769531 "/>
<path style=" stroke:none;fill-rule:nonzero;fill:rgb(0.392157%,0.392157%,0.392157%);fill-opacity:1;" d="M 19.621094 7.574219 L 19.730469 7.597656 L 20.246094 7.84375 L 20.78125 8.15625 L 21.183594 8.402344 L 21.519531 8.671875 L 21.808594 8.894531 L 22.078125 9.140625 L 22.257812 9.296875 L 22.769531 9.808594 L 22.972656 10.054688 L 23.195312 10.324219 L 23.464844 10.679688 L 23.710938 11.0625 L 23.910156 11.398438 L 24.132812 11.800781 L 24.378906 12.3125 L 24.601562 12.894531 L 24.804688 13.519531 L 24.894531 13.832031 L 25.140625 13.855469 L 25.183594 13.898438 L 25.273438 14.503906 L 25.363281 15.238281 L 25.386719 15.574219 L 25.386719 16.691406 L 25.320312 17.230469 L 25.230469 17.832031 L 25.183594 18.011719 L 25.09375 18.035156 L 24.894531 18.035156 L 24.828125 18.367188 L 24.648438 18.972656 L 24.445312 19.53125 L 24.089844 20.289062 L 23.820312 20.761719 L 23.464844 21.296875 L 23.238281 21.609375 L 22.996094 21.898438 L 22.792969 22.144531 L 22.144531 22.792969 L 21.964844 22.949219 L 21.675781 23.195312 L 21.363281 23.441406 L 21.140625 23.597656 L 20.871094 23.777344 L 20.804688 23.753906 L 20.714844 23.464844 L 20.582031 23.195312 L 20.335938 22.925781 L 20.089844 22.75 L 19.867188 22.636719 L 19.710938 22.59375 L 19.53125 22.570312 L 19.152344 22.570312 L 18.839844 22.636719 L 18.570312 22.769531 L 18.367188 22.925781 L 18.167969 23.128906 L 17.988281 23.417969 L 17.945312 23.507812 L 17.898438 23.507812 L 17.789062 23.152344 L 17.789062 23.015625 L 17.855469 22.90625 L 17.855469 22.660156 L 17.765625 22.300781 L 17.71875 22.191406 L 17.742188 22.054688 L 17.898438 21.808594 L 18.191406 21.453125 L 18.503906 21.074219 L 18.769531 20.761719 L 18.882812 20.625 L 19.328125 20.359375 L 19.800781 20.042969 L 20.15625 19.777344 L 20.222656 19.710938 L 20.269531 19.710938 L 20.269531 19.664062 L 20.445312 19.507812 L 20.917969 19.039062 L 21.25 18.59375 L 21.476562 18.257812 L 21.699219 17.878906 L 21.945312 17.363281 L 22.144531 16.804688 L 22.28125 16.335938 L 22.390625 15.753906 L 22.414062 15.464844 L 22.414062 14.210938 L 22.367188 13.765625 L 22.28125 13.320312 L 22.121094 12.78125 L 21.945312 12.289062 L 21.675781 11.730469 L 21.363281 11.21875 L 21.050781 10.792969 L 20.828125 10.546875 L 20.691406 10.347656 L 20.78125 9.945312 L 20.78125 9.542969 L 20.691406 9.273438 L 20.558594 9.09375 L 20.425781 8.984375 L 20.199219 8.871094 L 19.84375 8.78125 L 19.417969 8.714844 L 19.375 8.691406 L 19.398438 8.535156 L 19.507812 8.199219 L 19.53125 8.066406 L 19.484375 7.910156 L 19.597656 7.6875 Z M 19.621094 7.574219 "/>
<path style=" stroke:none;fill-rule:nonzero;fill:rgb(81.960785%,83.92157%,87.058824%);fill-opacity:1;" d="M 15.417969 0.648438 L 16.289062 0.648438 L 17.273438 0.691406 L 17.964844 0.761719 L 18.679688 0.871094 L 19.441406 1.027344 L 20.199219 1.230469 L 20.738281 1.40625 L 21.699219 1.765625 L 22.503906 2.121094 L 22.859375 2.300781 L 23.375 2.570312 L 23.910156 2.882812 L 24.335938 3.152344 L 24.691406 3.398438 L 25.117188 3.710938 L 25.429688 3.957031 L 25.71875 4.179688 L 25.964844 4.378906 L 26.257812 4.648438 L 26.4375 4.804688 L 27.152344 5.519531 L 27.308594 5.699219 L 27.53125 5.945312 L 27.730469 6.191406 L 28.023438 6.546875 L 28.359375 6.996094 L 28.648438 7.417969 L 28.960938 7.910156 L 29.296875 8.46875 L 29.476562 8.78125 L 29.699219 9.25 L 29.878906 9.609375 L 30.144531 10.234375 L 30.4375 11.015625 L 30.636719 11.640625 L 30.925781 12.894531 L 31.0625 13.652344 L 31.152344 14.347656 L 31.195312 15.039062 L 31.195312 17.25 L 31.152344 17.808594 L 31.0625 18.503906 L 30.90625 19.308594 L 30.703125 20.113281 L 30.414062 21.027344 L 30.144531 21.742188 L 29.855469 22.414062 L 29.609375 22.925781 L 29.339844 23.417969 L 29.050781 23.933594 L 28.691406 24.492188 L 28.402344 24.917969 L 28.132812 25.273438 L 27.6875 25.832031 L 27.417969 26.144531 L 27.152344 26.4375 L 26.949219 26.660156 L 26.523438 27.082031 L 26.347656 27.238281 L 26.054688 27.507812 L 25.878906 27.664062 L 25.585938 27.910156 L 25.230469 28.179688 L 24.804688 28.492188 L 24.066406 28.984375 L 23.597656 29.273438 L 23.039062 29.585938 L 22.367188 29.921875 L 21.808594 30.167969 L 21.117188 30.4375 L 20.582031 30.636719 L 19.867188 30.839844 L 19.0625 31.039062 L 18.347656 31.171875 L 17.675781 31.261719 L 17.320312 31.285156 L 14.570312 31.285156 L 13.988281 31.238281 L 13.339844 31.152344 L 12.535156 30.996094 L 11.597656 30.75 L 10.792969 30.480469 L 10.121094 30.234375 L 9.5625 29.988281 L 9.003906 29.71875 L 8.402344 29.40625 L 8.066406 29.207031 L 7.574219 28.894531 L 7.238281 28.671875 L 6.859375 28.402344 L 6.59375 28.199219 L 6.300781 27.976562 L 6.054688 27.777344 L 5.832031 27.574219 L 5.652344 27.417969 L 5.386719 27.171875 L 5.050781 26.859375 L 4.714844 26.523438 L 4.558594 26.347656 L 4.289062 26.054688 L 4.089844 25.808594 L 3.800781 25.453125 L 3.53125 25.09375 L 3.261719 24.714844 L 2.996094 24.3125 L 2.703125 23.84375 L 2.414062 23.328125 L 2.144531 22.839844 L 1.808594 22.101562 L 1.496094 21.320312 L 1.230469 20.515625 L 1.050781 19.910156 L 0.847656 19.039062 L 0.714844 18.257812 L 0.625 17.429688 L 0.601562 17.050781 L 0.601562 14.679688 L 0.648438 14.121094 L 0.761719 13.363281 L 0.917969 12.582031 L 1.074219 11.957031 L 1.273438 11.285156 L 1.519531 10.570312 L 1.808594 9.855469 L 2.054688 9.320312 L 2.503906 8.46875 L 2.816406 7.957031 L 3.082031 7.53125 L 3.328125 7.171875 L 3.621094 6.769531 L 3.867188 6.457031 L 4.179688 6.078125 L 4.445312 5.765625 L 4.761719 5.429688 L 5.09375 5.074219 L 5.273438 4.894531 L 5.320312 4.894531 L 5.320312 4.847656 L 5.496094 4.691406 L 5.789062 4.425781 L 6.035156 4.222656 L 6.324219 3.976562 L 6.703125 3.6875 L 7.105469 3.398438 L 7.710938 2.996094 L 8.15625 2.726562 L 8.691406 2.4375 L 9.074219 2.234375 L 9.699219 1.945312 L 10.234375 1.71875 L 10.769531 1.519531 L 11.574219 1.25 L 12.089844 1.09375 L 13.003906 0.894531 L 13.542969 0.804688 L 13.988281 0.738281 L 14.90625 0.671875 Z M 15.285156 1.117188 L 14.457031 1.160156 L 13.71875 1.25 L 12.9375 1.386719 L 12.3125 1.519531 L 11.597656 1.71875 L 10.679688 2.035156 L 10.011719 2.324219 L 9.675781 2.480469 L 9.207031 2.703125 L 8.691406 2.996094 L 8.222656 3.285156 L 7.867188 3.507812 L 7.464844 3.800781 L 6.972656 4.15625 L 6.613281 4.445312 L 6.414062 4.601562 L 6.078125 4.894531 L 6.011719 4.9375 L 6.011719 4.984375 L 5.921875 5.027344 L 5.09375 5.855469 L 4.9375 6.035156 L 4.714844 6.28125 L 4.714844 6.324219 L 4.648438 6.347656 L 4.445312 6.59375 L 4.199219 6.882812 L 3.710938 7.597656 L 3.554688 7.820312 L 3.328125 8.15625 L 2.859375 8.9375 L 2.679688 9.25 L 2.503906 9.609375 L 2.234375 10.167969 L 2.054688 10.613281 L 1.832031 11.195312 L 1.542969 12.089844 L 1.320312 12.984375 L 1.160156 13.832031 L 1.050781 14.75 L 1.027344 15.195312 L 1.027344 16.847656 L 1.074219 17.476562 L 1.140625 18.078125 L 1.273438 18.839844 L 1.429688 19.507812 L 1.609375 20.15625 L 1.945312 21.140625 L 2.28125 21.921875 L 2.546875 22.480469 L 2.816406 22.996094 L 3.039062 23.351562 L 3.308594 23.800781 L 3.53125 24.132812 L 3.820312 24.558594 L 4.066406 24.894531 L 4.3125 25.207031 L 4.625 25.585938 L 4.917969 25.898438 L 5.117188 26.144531 L 5.296875 26.347656 L 5.339844 26.347656 L 5.386719 26.4375 L 5.5625 26.613281 L 5.609375 26.613281 L 5.609375 26.660156 L 5.898438 26.949219 L 6.078125 27.105469 L 6.390625 27.375 L 6.75 27.664062 L 7.039062 27.886719 L 7.398438 28.15625 L 7.820312 28.445312 L 8.066406 28.625 L 8.78125 29.050781 L 9.25 29.320312 L 9.675781 29.519531 L 10.121094 29.71875 L 10.703125 29.964844 L 11.464844 30.234375 L 12.246094 30.457031 L 12.9375 30.613281 L 13.945312 30.792969 L 14.792969 30.882812 L 15.128906 30.90625 L 16.648438 30.90625 L 17.476562 30.839844 L 18.257812 30.726562 L 19.261719 30.523438 L 19.886719 30.367188 L 20.515625 30.167969 L 21.09375 29.964844 L 21.675781 29.71875 L 22.035156 29.5625 L 22.367188 29.40625 L 22.839844 29.160156 L 23.441406 28.804688 L 23.800781 28.582031 L 24.15625 28.335938 L 24.558594 28.042969 L 24.828125 27.84375 L 25.140625 27.597656 L 25.386719 27.398438 L 25.71875 27.105469 L 25.945312 26.90625 L 26.703125 26.144531 L 26.90625 25.898438 L 27.195312 25.585938 L 27.398438 25.339844 L 27.6875 24.984375 L 27.976562 24.582031 L 28.335938 24.066406 L 28.601562 23.640625 L 29.027344 22.925781 L 29.363281 22.28125 L 29.609375 21.765625 L 29.832031 21.230469 L 30.035156 20.671875 L 30.257812 19.976562 L 30.523438 18.90625 L 30.679688 17.988281 L 30.769531 17.183594 L 30.816406 16.425781 L 30.816406 15.597656 L 30.769531 14.816406 L 30.679688 13.988281 L 30.503906 12.984375 L 30.300781 12.179688 L 30.121094 11.597656 L 29.878906 10.90625 L 29.542969 10.101562 L 29.183594 9.386719 L 28.917969 8.871094 L 28.535156 8.246094 L 28.089844 7.574219 L 27.867188 7.261719 L 27.597656 6.882812 L 27.285156 6.503906 L 27.082031 6.28125 L 26.925781 6.101562 L 26.613281 5.765625 L 26.457031 5.609375 L 26.300781 5.429688 L 26.035156 5.160156 L 25.988281 5.160156 L 25.988281 5.117188 L 25.808594 4.960938 L 25.585938 4.761719 L 25.339844 4.558594 L 25.074219 4.335938 L 24.691406 4.042969 L 24.269531 3.730469 L 23.84375 3.441406 L 23.417969 3.171875 L 22.925781 2.882812 L 22.523438 2.660156 L 22.101562 2.457031 L 21.652344 2.257812 L 21.074219 2.011719 L 20.089844 1.675781 L 19.328125 1.476562 L 18.414062 1.296875 L 17.765625 1.207031 L 17.050781 1.140625 L 16.515625 1.117188 Z M 15.285156 1.117188 "/>
<path style=" stroke:none;fill-rule:nonzero;fill:rgb(0.392157%,0.392157%,0.392157%);fill-opacity:1;" d="M 15.574219 8.761719 L 16.648438 8.761719 L 16.804688 8.78125 L 16.738281 8.828125 L 16.269531 8.960938 L 15.84375 9.117188 L 15.417969 9.320312 L 15.152344 9.5625 L 15.015625 9.789062 L 14.882812 10.144531 L 14.816406 10.4375 L 14.769531 10.703125 L 14.660156 10.90625 L 14.414062 11.285156 L 14.234375 11.640625 L 14.121094 11.976562 L 14.101562 12.066406 L 14.101562 12.246094 L 14.167969 12.425781 L 14.234375 12.515625 L 14.234375 12.984375 L 14.300781 13.296875 L 14.480469 13.652344 L 14.679688 13.855469 L 14.925781 13.855469 L 15.105469 13.832031 L 15.0625 14.234375 L 15.0625 14.480469 L 14.996094 14.679688 L 14.949219 14.839844 L 14.75 14.996094 L 14.59375 15.21875 L 14.480469 15.484375 L 14.414062 15.777344 L 14.367188 16.089844 L 14.144531 16.425781 L 14.011719 16.714844 L 13.921875 17.074219 L 13.789062 17.765625 L 13.742188 18.300781 L 13.921875 18.367188 L 13.765625 19.195312 L 13.519531 19.417969 L 13.40625 19.53125 L 13.207031 19.753906 L 12.984375 20.066406 L 12.761719 19.957031 L 12.445312 19.730469 L 12.132812 19.484375 L 11.886719 19.261719 L 11.710938 19.105469 L 11.53125 18.925781 L 11.375 18.75 L 11.082031 18.367188 L 10.839844 17.988281 L 10.613281 17.585938 L 10.390625 17.117188 L 10.167969 16.445312 L 10.035156 15.800781 L 9.988281 15.507812 L 9.964844 15.238281 L 9.964844 14.457031 L 10.011719 14.011719 L 10.121094 13.40625 L 10.28125 12.871094 L 10.457031 12.402344 L 10.679688 11.933594 L 10.882812 11.597656 L 11.152344 11.21875 L 11.375 10.925781 L 11.574219 10.703125 L 11.730469 10.523438 L 11.886719 10.367188 L 12.132812 10.167969 L 12.402344 9.945312 L 12.691406 9.742188 L 13.027344 9.542969 L 13.519531 9.273438 L 14.054688 9.074219 L 14.523438 8.9375 L 15.0625 8.828125 Z M 15.574219 8.761719 "/>
<path style=" stroke:none;fill-rule:nonzero;fill:rgb(99.215686%,99.215686%,99.215686%);fill-opacity:1;" d="M 11.574219 2.121094 L 11.777344 2.121094 L 12.113281 2.324219 L 12.535156 2.570312 L 12.871094 2.769531 L 12.960938 2.839844 L 12.917969 2.839844 L 12.917969 2.882812 L 12.492188 2.972656 L 12.535156 3.261719 L 12.894531 5.050781 L 12.894531 5.140625 L 13.160156 5.09375 L 13.453125 5.050781 L 13.320312 4.359375 L 13.320312 4.246094 L 13.386719 4.199219 L 14.191406 4.042969 L 14.28125 4.042969 L 14.234375 3.820312 L 14.234375 3.621094 L 14.457031 3.664062 L 14.546875 4.023438 L 14.636719 4.222656 L 14.726562 4.359375 L 14.816406 4.46875 L 15.039062 4.625 L 15.285156 4.738281 L 15.507812 4.78125 L 15.84375 4.804688 L 15.84375 5.878906 L 15.710938 5.921875 L 15.128906 5.945312 L 14.457031 6.011719 L 13.496094 6.191406 L 12.917969 6.347656 L 12.335938 6.546875 L 11.753906 6.792969 L 11.328125 6.996094 L 10.816406 7.285156 L 10.414062 7.53125 L 9.921875 7.867188 L 9.609375 8.113281 L 9.320312 8.359375 L 9.027344 8.625 L 8.601562 9.050781 L 8.445312 9.230469 L 8.179688 9.519531 L 8.023438 9.71875 L 7.933594 9.789062 L 7.933594 9.71875 L 7.640625 9.542969 L 7.328125 9.363281 L 7.328125 7.039062 L 7.375 4.515625 L 7.441406 4.402344 L 7.910156 4.132812 L 8.179688 4 L 8.691406 3.710938 L 9.09375 3.484375 L 9.632812 3.171875 L 10.078125 2.925781 L 10.414062 2.726562 L 10.90625 2.4375 L 11.441406 2.167969 Z M 11.574219 2.121094 "/>
<path style=" stroke:none;fill-rule:nonzero;fill:rgb(81.960785%,83.92157%,87.058824%);fill-opacity:1;" d="M 25.117188 4.847656 L 25.230469 4.917969 L 25.5625 5.207031 L 25.921875 5.542969 L 26.570312 6.191406 L 26.570312 6.234375 L 26.613281 6.234375 L 26.816406 6.480469 L 27.082031 6.792969 L 27.328125 7.105469 L 27.6875 7.574219 L 28.179688 8.289062 L 28.425781 8.691406 L 28.738281 9.230469 L 28.917969 9.5625 L 29.09375 9.921875 L 29.339844 10.457031 L 29.585938 11.0625 L 29.878906 11.910156 L 30.121094 12.847656 L 30.28125 13.632812 L 30.300781 13.832031 L 30.257812 13.855469 L 25.765625 13.855469 L 25.71875 13.71875 L 25.542969 13.050781 L 25.320312 12.402344 L 25.117188 11.910156 L 24.847656 11.351562 L 24.558594 10.839844 L 24.269531 10.367188 L 24.089844 10.121094 L 24.066406 10.011719 L 24.113281 10.011719 L 24.15625 9.921875 L 24.714844 9.632812 L 25.003906 9.453125 L 25.074219 6.167969 L 25.09375 5.25 Z M 25.117188 4.847656 "/>
<path style=" stroke:none;fill-rule:nonzero;fill:rgb(81.960785%,83.92157%,87.058824%);fill-opacity:1;" d="M 15.53125 1.429688 L 16.269531 1.429688 L 17.027344 1.476562 L 18.035156 1.585938 L 18.679688 1.699219 L 19.308594 1.832031 L 20.113281 2.054688 L 20.625 2.210938 L 20.625 2.234375 L 20.492188 2.28125 L 20.269531 2.414062 L 19.957031 2.59375 L 19.53125 2.859375 L 19.171875 3.039062 L 19.128906 3.039062 L 19.195312 3.152344 L 19.351562 3.351562 L 19.464844 3.597656 L 19.484375 3.6875 L 19.484375 4.113281 L 19.398438 4.402344 L 19.261719 4.625 L 19.0625 4.828125 L 18.839844 4.960938 L 18.546875 5.050781 L 18.121094 5.050781 L 17.789062 4.960938 L 17.519531 4.804688 L 17.40625 4.714844 L 17.230469 4.492188 L 17.117188 4.246094 L 17.074219 4.089844 L 17.074219 4.199219 L 17.003906 4.222656 L 16.9375 4.289062 L 16.671875 4.425781 L 16.558594 4.46875 L 16.402344 4.601562 L 16.132812 4.738281 L 15.820312 4.804688 L 15.507812 4.804688 L 15.21875 4.738281 L 14.925781 4.582031 L 14.769531 4.445312 L 14.636719 4.269531 L 14.546875 4.089844 L 14.480469 3.867188 L 14.457031 3.664062 L 14.324219 3.664062 L 14.234375 3.621094 L 14.28125 3.933594 L 14.28125 4.042969 L 13.386719 4.222656 L 13.339844 4.246094 L 13.363281 4.46875 L 13.453125 4.917969 L 13.453125 5.050781 L 12.9375 5.160156 L 12.894531 5.140625 L 12.46875 3.039062 L 12.492188 2.949219 L 12.804688 2.882812 L 12.917969 2.882812 L 12.871094 2.792969 L 11.957031 2.257812 L 11.777344 2.144531 L 11.574219 2.144531 L 11.375 2.191406 L 11.464844 2.121094 L 12.3125 1.878906 L 12.984375 1.71875 L 13.789062 1.585938 L 14.546875 1.496094 L 15.0625 1.453125 Z M 15.53125 1.429688 "/>
<path style=" stroke:none;fill-rule:nonzero;fill:rgb(8.627451%,8.235294%,8.627451%);fill-opacity:1;" d="M 15.710938 5.898438 L 16.179688 5.898438 L 16.761719 5.921875 L 17.496094 6.011719 L 17.789062 6.078125 L 17.742188 6.167969 L 17.5625 6.324219 L 17.429688 6.390625 L 17.273438 6.613281 L 16.691406 6.570312 L 16.042969 6.546875 L 15.574219 6.546875 L 14.859375 6.59375 L 14.121094 6.703125 L 13.609375 6.816406 L 13.027344 6.972656 L 12.222656 7.261719 L 11.6875 7.507812 L 11.152344 7.800781 L 10.679688 8.089844 L 10.300781 8.359375 L 10.011719 8.582031 L 9.699219 8.847656 L 9.476562 9.050781 L 9.207031 9.296875 L 8.917969 9.585938 L 8.714844 9.832031 L 8.492188 10.101562 L 8.199219 10.503906 L 7.957031 10.839844 L 7.6875 11.261719 L 7.375 11.867188 L 7.152344 12.359375 L 6.90625 13.003906 L 6.75 13.542969 L 6.679688 13.808594 L 6.75 13.855469 L 6.636719 13.855469 L 6.59375 14.121094 L 6.503906 14.792969 L 6.4375 15.664062 L 6.4375 16.222656 L 6.503906 17.183594 L 6.613281 17.945312 L 6.660156 18.054688 L 6.792969 18.636719 L 7.015625 19.308594 L 7.21875 19.800781 L 7.597656 20.582031 L 7.867188 21.027344 L 8.042969 21.296875 L 8.269531 21.609375 L 8.558594 21.988281 L 8.804688 22.28125 L 9.050781 22.546875 L 9.363281 22.859375 L 9.542969 23.015625 L 9.878906 23.308594 L 10.257812 23.597656 L 10.660156 23.886719 L 11.195312 24.222656 L 11.238281 24.289062 L 11.195312 24.46875 L 11.152344 24.894531 L 11.039062 24.847656 L 10.570312 24.582031 L 10.078125 24.246094 L 9.789062 24.023438 L 9.40625 23.710938 L 9.117188 23.464844 L 8.289062 22.636719 L 8.089844 22.390625 L 7.777344 21.988281 L 7.53125 21.632812 L 7.21875 21.160156 L 6.90625 20.601562 L 6.679688 20.132812 L 6.4375 19.53125 L 6.210938 18.859375 L 6.011719 18.054688 L 5.988281 18.035156 L 5.945312 17.652344 L 5.898438 17.339844 L 5.832031 16.492188 L 5.832031 15.441406 L 5.898438 14.636719 L 6.011719 13.964844 L 6.054688 13.742188 L 6.234375 13.074219 L 6.480469 12.359375 L 6.726562 11.777344 L 6.949219 11.328125 L 7.261719 10.792969 L 7.554688 10.324219 L 7.84375 9.921875 L 8.023438 9.699219 L 8.222656 9.453125 L 8.761719 8.871094 L 9.207031 8.425781 L 9.386719 8.269531 L 9.765625 7.957031 L 10.144531 7.6875 L 10.523438 7.441406 L 10.816406 7.261719 L 11.21875 7.039062 L 11.554688 6.859375 L 12.113281 6.613281 L 12.714844 6.390625 L 13.320312 6.210938 L 13.945312 6.078125 L 14.636719 5.964844 L 15.128906 5.921875 Z M 15.710938 5.898438 "/>
<path style=" stroke:none;fill-rule:nonzero;fill:rgb(8.627451%,8.235294%,8.627451%);fill-opacity:1;" d="M 19.664062 6.636719 L 19.800781 6.660156 L 20.425781 6.949219 L 20.871094 7.195312 L 21.273438 7.441406 L 21.878906 7.84375 L 22.191406 8.089844 L 22.480469 8.335938 L 22.75 8.582031 L 23.082031 8.894531 L 23.238281 9.050781 L 23.398438 9.230469 L 23.640625 9.496094 L 23.933594 9.878906 L 24.15625 10.167969 L 24.402344 10.546875 L 24.691406 11.039062 L 24.960938 11.53125 L 25.183594 12 L 25.429688 12.648438 L 25.609375 13.207031 L 25.765625 13.832031 L 25.855469 14.347656 L 25.945312 15.015625 L 25.964844 15.261719 L 25.988281 15.777344 L 25.988281 16.402344 L 25.964844 16.871094 L 25.878906 17.652344 L 25.808594 18.035156 L 25.542969 19.039062 L 25.296875 19.730469 L 25.050781 20.289062 L 24.804688 20.78125 L 24.445312 21.386719 L 24 22.011719 L 23.710938 22.390625 L 23.417969 22.726562 L 23.152344 23.015625 L 22.636719 23.53125 L 22.390625 23.730469 L 22.035156 24.023438 L 21.609375 24.335938 L 21.230469 24.582031 L 20.917969 24.761719 L 20.671875 24.894531 L 20.601562 24.871094 L 20.738281 24.625 L 20.828125 24.289062 L 20.847656 24.089844 L 21.074219 23.933594 L 21.429688 23.6875 L 21.808594 23.398438 L 22.054688 23.195312 L 22.347656 22.949219 L 22.90625 22.390625 L 23.105469 22.144531 L 23.285156 21.945312 L 23.554688 21.585938 L 23.820312 21.207031 L 24.089844 20.78125 L 24.3125 20.378906 L 24.535156 19.910156 L 24.804688 19.261719 L 25.003906 18.660156 L 25.207031 17.832031 L 25.320312 17.117188 L 25.363281 16.691406 L 25.363281 15.574219 L 25.320312 15.015625 L 25.230469 14.367188 L 25.160156 13.898438 L 25.117188 13.808594 L 24.984375 13.296875 L 24.761719 12.625 L 24.515625 12.042969 L 24.246094 11.484375 L 23.976562 11.015625 L 23.710938 10.636719 L 23.398438 10.191406 L 23.152344 9.878906 L 22.90625 9.609375 L 22.75 9.429688 L 22.570312 9.25 L 22.390625 9.09375 L 22.144531 8.871094 L 21.898438 8.671875 L 21.5625 8.402344 L 21.183594 8.132812 L 20.761719 7.867188 L 20.222656 7.574219 L 19.800781 7.351562 L 19.664062 7.285156 L 19.640625 7.21875 L 19.710938 6.816406 Z M 19.664062 6.636719 "/>
<path style=" stroke:none;fill-rule:nonzero;fill:rgb(99.215686%,99.215686%,99.215686%);fill-opacity:1;" d="M 25.453125 9.878906 L 25.609375 9.898438 L 26.101562 10.191406 L 26.679688 10.523438 L 27.171875 10.816406 L 27.417969 10.972656 L 27.664062 11.105469 L 28.289062 11.484375 L 28.871094 11.820312 L 29.386719 12.132812 L 29.699219 12.335938 L 29.71875 12.378906 L 29.742188 13.742188 L 29.765625 13.832031 L 25.742188 13.832031 L 25.585938 13.207031 L 25.320312 12.402344 L 25.117188 11.910156 L 24.847656 11.351562 L 24.558594 10.839844 L 24.378906 10.546875 L 24.378906 10.480469 L 24.894531 10.210938 Z M 25.453125 9.878906 "/>
<path style=" stroke:none;fill-rule:nonzero;fill:rgb(0.392157%,0.392157%,0.392157%);fill-opacity:1;" d="M 14.703125 21.160156 L 15.238281 21.230469 L 15.621094 21.25 L 16.714844 21.25 L 16.625 21.339844 L 16.425781 21.453125 L 16.246094 21.609375 L 16.113281 21.832031 L 16.066406 21.945312 L 16.066406 22.28125 L 16.15625 22.570312 L 16.289062 22.769531 L 16.378906 22.882812 L 16.425781 23.375 L 16.515625 23.664062 L 16.601562 23.84375 L 16.761719 24.023438 L 16.984375 24.132812 L 17.09375 24.15625 L 17.40625 24.15625 L 17.742188 24.066406 L 17.855469 24.042969 L 17.878906 24.3125 L 17.988281 24.671875 L 18.101562 24.894531 L 18.101562 24.960938 L 17.5625 25.074219 L 16.894531 25.183594 L 16.601562 25.207031 L 15.285156 25.207031 L 14.75 25.160156 L 14.101562 25.050781 L 13.519531 24.917969 L 12.917969 24.738281 L 12.871094 24.691406 L 12.828125 24.359375 L 12.828125 23.820312 L 12.9375 23.640625 L 13.207031 23.328125 L 13.453125 23.0625 L 13.652344 22.816406 L 13.898438 22.523438 L 14.167969 22.144531 L 14.347656 21.832031 L 14.480469 21.496094 Z M 14.703125 21.160156 "/>
<path style=" stroke:none;fill-rule:nonzero;fill:rgb(99.215686%,99.215686%,99.215686%);fill-opacity:1;" d="M 6.949219 9.878906 L 7.082031 9.898438 L 7.53125 10.144531 L 7.621094 10.191406 L 7.597656 10.300781 L 7.351562 10.679688 L 7.039062 11.21875 L 6.726562 11.820312 L 6.4375 12.535156 L 6.191406 13.296875 L 6.054688 13.832031 L 2.703125 13.832031 L 2.726562 13.386719 L 2.75 12.289062 L 2.972656 12.132812 L 3.597656 11.777344 L 4.199219 11.441406 L 5.921875 10.457031 L 6.523438 10.121094 L 6.90625 9.898438 Z M 6.949219 9.878906 "/>
<path style=" stroke:none;fill-rule:nonzero;fill:rgb(0.392157%,0.392157%,0.392157%);fill-opacity:1;" d="M 20.847656 11.195312 L 20.960938 11.308594 L 21.140625 11.554688 L 21.453125 12.089844 L 21.675781 12.601562 L 21.878906 13.207031 L 21.988281 13.71875 L 22.054688 14.167969 L 22.078125 14.4375 L 22.078125 15.285156 L 21.988281 15.976562 L 21.855469 16.535156 L 21.699219 17.003906 L 21.542969 17.386719 L 21.320312 17.808594 L 21.09375 18.191406 L 20.804688 18.59375 L 20.582031 18.839844 L 20.425781 19.015625 L 20.179688 19.261719 L 19.933594 19.464844 L 19.710938 19.664062 L 19.53125 19.800781 L 19.484375 19.777344 L 19.621094 19.597656 L 19.820312 19.261719 L 19.976562 18.90625 L 20.066406 18.570312 L 20.066406 17.945312 L 20.023438 17.273438 L 19.933594 16.582031 L 19.820312 16.246094 L 19.621094 15.910156 L 19.574219 15.820312 L 19.53125 15.53125 L 19.484375 15.375 L 19.53125 15.128906 L 19.53125 14.816406 L 19.464844 14.523438 L 19.484375 14.324219 L 19.554688 14.011719 L 19.554688 13.789062 L 19.53125 13.71875 L 19.753906 13.160156 L 19.867188 12.761719 L 19.886719 12.492188 L 19.957031 12.515625 L 20.179688 12.960938 L 20.199219 13.542969 L 20.269531 13.808594 L 20.445312 14.167969 L 20.625 14.613281 L 20.714844 14.726562 L 20.78125 14.75 L 20.960938 14.75 L 21.074219 14.636719 L 21.140625 14.457031 L 21.339844 14.4375 L 21.476562 14.257812 L 21.5625 14.078125 L 21.652344 13.652344 L 21.652344 13.429688 L 21.5625 13.25 L 21.339844 13.003906 L 21.183594 12.804688 L 21.09375 12.515625 L 20.894531 11.441406 Z M 20.847656 11.195312 "/>
<path style=" stroke:none;fill-rule:nonzero;fill:rgb(99.607843%,99.607843%,99.607843%);fill-opacity:1;" d="M 6.90625 25.542969 L 7.0625 25.5625 L 7.621094 25.878906 L 8.066406 26.144531 L 8.601562 26.457031 L 8.9375 26.660156 L 9.429688 26.949219 L 9.964844 27.261719 L 10.257812 27.441406 L 10.679688 27.6875 L 10.972656 27.867188 L 11.21875 28 L 11.621094 28.199219 L 11.621094 29.453125 L 11.484375 29.429688 L 10.480469 29.050781 L 9.765625 28.738281 L 9.09375 28.402344 L 8.671875 28.15625 L 8.246094 27.886719 L 7.710938 27.53125 L 7.308594 27.21875 L 6.949219 26.925781 L 6.703125 26.726562 L 6.4375 26.480469 L 6.257812 26.324219 L 6.035156 26.121094 L 5.988281 26.054688 L 6.480469 25.789062 L 6.839844 25.5625 Z M 6.90625 25.542969 "/>
<path style=" stroke:none;fill-rule:nonzero;fill:rgb(9.019608%,8.627451%,9.019608%);fill-opacity:1;" d="M 15.640625 26.660156 L 15.6875 26.660156 L 15.867188 26.90625 L 16.089844 27.171875 L 16.359375 27.554688 L 16.558594 27.800781 L 16.648438 27.933594 L 16.671875 28.023438 L 16.78125 28.089844 L 17.003906 28.402344 L 17.003906 28.492188 L 17.117188 28.535156 L 17.339844 28.804688 L 17.40625 28.9375 L 17.386719 29.027344 L 17.519531 29.183594 L 17.519531 29.25 L 16.960938 29.496094 L 16 29.898438 L 15.730469 30.011719 L 15.574219 30.011719 L 14.769531 29.652344 L 14.191406 29.40625 L 13.832031 29.25 L 13.855469 29.117188 L 14.4375 28.3125 L 14.75 27.886719 L 15.015625 27.507812 L 15.308594 27.105469 L 15.574219 26.75 Z M 15.640625 26.660156 "/>
<path style=" stroke:none;fill-rule:nonzero;fill:rgb(0.392157%,0.392157%,0.392157%);fill-opacity:1;" d="M 18.167969 6.191406 L 18.570312 6.191406 L 18.925781 6.257812 L 19.195312 6.367188 L 19.417969 6.523438 L 19.507812 6.679688 L 19.53125 6.882812 L 19.484375 7.0625 L 19.417969 7.6875 L 19.328125 7.84375 L 19.328125 8.132812 L 19.261719 8.402344 L 19.171875 8.625 L 19.082031 8.804688 L 19.082031 9.027344 L 18.996094 9.230469 L 18.816406 9.386719 L 18.613281 9.476562 L 18.523438 9.496094 L 18.167969 9.496094 L 17.898438 9.386719 L 17.675781 9.183594 L 17.542969 8.960938 L 17.496094 8.78125 L 17.496094 8.132812 L 17.320312 7.886719 L 17.273438 7.710938 L 17.273438 7.398438 L 17.363281 7.308594 L 17.40625 7.285156 L 17.40625 6.996094 L 17.476562 6.636719 L 17.5625 6.503906 L 17.71875 6.4375 L 17.808594 6.390625 L 17.921875 6.28125 L 18.078125 6.210938 Z M 18.167969 6.191406 "/>
<path style=" stroke:none;fill-rule:nonzero;fill:rgb(0.784314%,0.784314%,0.784314%);fill-opacity:1;" d="M 19.152344 22.726562 L 19.53125 22.726562 L 19.800781 22.792969 L 20.132812 22.972656 L 20.378906 23.195312 L 20.515625 23.417969 L 20.625 23.6875 L 20.671875 23.886719 L 20.671875 24.222656 L 20.582031 24.558594 L 20.46875 24.78125 L 20.269531 25.027344 L 19.957031 25.25 L 19.730469 25.339844 L 19.464844 25.386719 L 19.082031 25.363281 L 18.792969 25.273438 L 18.546875 25.117188 L 18.324219 24.917969 L 18.167969 24.671875 L 18.078125 24.445312 L 18.035156 24.269531 L 18.035156 23.820312 L 18.121094 23.53125 L 18.28125 23.238281 L 18.457031 23.039062 L 18.703125 22.882812 L 18.949219 22.769531 Z M 19.152344 22.726562 "/>
<path style=" stroke:none;fill-rule:nonzero;fill:rgb(99.607843%,99.607843%,99.607843%);fill-opacity:1;" d="M 25.496094 25.519531 L 25.609375 25.542969 L 25.898438 25.71875 L 26.011719 25.789062 L 25.964844 25.898438 L 25.476562 26.390625 L 25.296875 26.546875 L 24.984375 26.816406 L 24.671875 27.0625 L 24.269531 27.375 L 23.820312 27.6875 L 23.375 27.976562 L 22.925781 28.246094 L 22.4375 28.515625 L 21.898438 28.78125 L 20.960938 29.183594 L 20.847656 29.183594 L 20.828125 29.160156 L 20.828125 28.179688 L 20.917969 28.089844 L 21.476562 27.800781 L 21.988281 27.507812 L 22.367188 27.285156 L 22.636719 27.152344 L 23.105469 26.882812 L 23.597656 26.613281 L 23.976562 26.390625 L 24.246094 26.257812 L 24.648438 26.035156 L 25.160156 25.742188 Z M 25.496094 25.519531 "/>
<path style=" stroke:none;fill-rule:nonzero;fill:rgb(0.392157%,0.392157%,0.392157%);fill-opacity:1;" d="M 18.480469 10.144531 L 18.59375 10.167969 L 18.59375 10.324219 L 18.523438 10.457031 L 18.546875 10.546875 L 18.480469 10.703125 L 18.347656 10.75 L 18.414062 10.859375 L 18.390625 11.015625 L 18.234375 11.152344 L 17.988281 11.328125 L 17.765625 11.507812 L 17.585938 11.800781 L 17.40625 11.976562 L 17.183594 12.113281 L 17.003906 12.179688 L 16.828125 12.199219 L 16.671875 12.402344 L 16.535156 12.601562 L 16.289062 12.894531 L 16.042969 13.140625 L 15.800781 13.320312 L 15.441406 13.519531 L 15.082031 13.652344 L 14.859375 13.699219 L 14.75 13.675781 L 14.636719 13.585938 L 14.480469 13.339844 L 14.414062 13.09375 L 14.390625 12.804688 L 14.457031 12.378906 L 14.59375 11.976562 L 14.679688 11.800781 L 14.882812 11.730469 L 15.152344 11.6875 L 15.597656 11.6875 L 15.867188 11.753906 L 16.042969 11.753906 L 16.625 11.554688 L 16.871094 11.261719 L 17.09375 10.972656 L 17.320312 10.726562 L 17.855469 10.457031 L 18.28125 10.234375 Z M 18.480469 10.144531 "/>
<path style=" stroke:none;fill-rule:nonzero;fill:rgb(0.392157%,0.392157%,0.392157%);fill-opacity:1;" d="M 19.597656 16.601562 L 19.710938 16.625 L 19.800781 16.917969 L 19.867188 17.386719 L 19.910156 18.144531 L 19.910156 18.503906 L 19.820312 18.859375 L 19.640625 19.21875 L 19.554688 19.351562 L 19.464844 19.417969 L 19.238281 19.464844 L 18.996094 19.484375 L 18.660156 19.484375 L 18.414062 19.398438 L 18.234375 19.261719 L 18.121094 19.128906 L 18.035156 18.90625 L 18.011719 18.660156 L 18.054688 18.59375 L 18.167969 18.570312 L 18.121094 18.4375 L 17.898438 18.101562 L 17.699219 17.71875 L 17.585938 17.429688 L 17.632812 17.320312 L 17.855469 17.117188 L 18.167969 16.9375 L 18.503906 16.804688 L 18.90625 16.691406 L 19.351562 16.625 Z M 19.597656 16.601562 "/>
<path style=" stroke:none;fill-rule:nonzero;fill:rgb(0.392157%,0.392157%,0.392157%);fill-opacity:1;" d="M 16.894531 17.71875 L 16.960938 17.71875 L 17.050781 17.855469 L 17.160156 17.945312 L 17.273438 18.011719 L 17.363281 18.035156 L 17.652344 18.054688 L 17.898438 18.4375 L 17.855469 18.523438 L 17.632812 18.75 L 17.40625 19.082031 L 17.230469 19.507812 L 17.117188 19.957031 L 16.984375 20.828125 L 16.714844 20.871094 L 16.378906 20.894531 L 15.777344 20.894531 L 15.171875 20.847656 L 14.90625 20.804688 L 14.925781 20.648438 L 14.996094 20.46875 L 15.195312 20.335938 L 15.328125 20.113281 L 15.417969 19.867188 L 15.441406 19.710938 L 15.730469 19.308594 L 15.910156 19.0625 L 16.199219 18.660156 L 16.378906 18.414062 L 16.535156 18.367188 L 16.714844 18.054688 Z M 16.894531 17.71875 "/>
<path style=" stroke:none;fill-rule:nonzero;fill:rgb(0.784314%,0.784314%,0.784314%);fill-opacity:1;" d="M 15.464844 2.523438 L 15.910156 2.523438 L 16.199219 2.613281 L 16.378906 2.703125 L 16.601562 2.882812 L 16.761719 3.105469 L 16.871094 3.375 L 16.894531 3.464844 L 16.894531 3.867188 L 16.804688 4.15625 L 16.648438 4.378906 L 16.46875 4.558594 L 16.199219 4.714844 L 15.976562 4.78125 L 15.820312 4.804688 L 15.507812 4.804688 L 15.21875 4.738281 L 14.925781 4.582031 L 14.769531 4.445312 L 14.636719 4.269531 L 14.546875 4.089844 L 14.480469 3.867188 L 14.457031 3.574219 L 14.546875 3.21875 L 14.660156 3.015625 L 14.859375 2.792969 L 15.105469 2.636719 L 15.351562 2.546875 Z M 15.464844 2.523438 "/>
<path style=" stroke:none;fill-rule:nonzero;fill:rgb(0.784314%,0.784314%,0.784314%);fill-opacity:1;" d="M 18.011719 2.769531 L 18.4375 2.769531 L 18.726562 2.839844 L 19.015625 2.996094 L 19.238281 3.195312 L 19.398438 3.441406 L 19.484375 3.6875 L 19.484375 4.113281 L 19.398438 4.402344 L 19.261719 4.625 L 19.0625 4.828125 L 18.839844 4.960938 L 18.546875 5.050781 L 18.121094 5.050781 L 17.789062 4.960938 L 17.519531 4.804688 L 17.40625 4.714844 L 17.230469 4.492188 L 17.117188 4.246094 L 17.074219 4.089844 L 17.074219 3.730469 L 17.160156 3.417969 L 17.320312 3.171875 L 17.496094 2.996094 L 17.765625 2.839844 Z M 18.011719 2.769531 "/>
<path style=" stroke:none;fill-rule:nonzero;fill:rgb(0.784314%,0.784314%,0.784314%);fill-opacity:1;" d="M 17.609375 12.066406 L 17.742188 12.089844 L 17.765625 12.179688 L 17.632812 12.558594 L 17.453125 12.917969 L 17.273438 13.230469 L 17.074219 13.496094 L 16.804688 13.808594 L 16.402344 14.210938 L 16.089844 14.457031 L 15.820312 14.660156 L 16.023438 14.636719 L 16.335938 14.480469 L 16.761719 14.210938 L 17.027344 14.035156 L 17.140625 13.988281 L 17.183594 14.101562 L 17.160156 14.191406 L 16.984375 14.324219 L 16.515625 14.613281 L 16.289062 14.726562 L 16.558594 14.660156 L 16.960938 14.480469 L 17.40625 14.234375 L 17.71875 14.011719 L 18.035156 13.765625 L 18.324219 13.496094 L 18.523438 13.25 L 18.703125 13.027344 L 18.769531 12.984375 L 18.925781 12.984375 L 19.039062 13.117188 L 19.015625 13.230469 L 18.90625 13.40625 L 18.703125 13.652344 L 18.347656 14.011719 L 18.101562 14.210938 L 17.765625 14.457031 L 17.339844 14.726562 L 17.207031 14.792969 L 17.207031 14.816406 L 17.699219 14.792969 L 18.144531 14.703125 L 18.503906 14.570312 L 18.636719 14.480469 L 18.769531 14.324219 L 18.859375 14.121094 L 18.925781 14.078125 L 19.082031 14.078125 L 19.171875 14.191406 L 19.195312 14.324219 L 19.105469 14.546875 L 18.925781 14.769531 L 18.75 14.90625 L 18.414062 15.0625 L 17.945312 15.171875 L 17.609375 15.21875 L 16.648438 15.21875 L 16.089844 15.152344 L 15.464844 15.015625 L 15.328125 14.949219 L 15.261719 14.839844 L 15.285156 14.703125 L 15.417969 14.59375 L 15.554688 14.503906 L 15.777344 14.257812 L 15.957031 13.964844 L 16.132812 13.609375 L 16.378906 13.074219 L 16.492188 12.78125 L 16.601562 12.761719 L 16.691406 12.804688 L 16.714844 12.9375 L 16.582031 13.296875 L 16.359375 13.808594 L 16.199219 14.121094 L 16.515625 13.808594 L 16.714844 13.5625 L 16.960938 13.273438 L 17.183594 12.9375 L 17.40625 12.515625 L 17.585938 12.089844 Z M 17.609375 12.066406 "/>
<path style=" stroke:none;fill-rule:nonzero;fill:rgb(0.392157%,0.392157%,0.392157%);fill-opacity:1;" d="M 14.144531 18.234375 L 14.523438 18.324219 L 14.925781 18.367188 L 15.484375 18.347656 L 15.976562 18.28125 L 16.246094 18.234375 L 16.246094 18.300781 L 16 18.636719 L 15.417969 19.441406 L 15.261719 19.664062 L 15.195312 20 L 15.039062 20.246094 L 14.839844 20.378906 L 14.769531 20.601562 L 14.703125 20.671875 L 14.257812 20.738281 L 13.945312 20.714844 L 13.675781 20.625 L 13.476562 20.445312 L 13.339844 20.179688 L 13.296875 20.066406 L 13.296875 19.933594 L 13.453125 19.730469 L 13.71875 19.464844 L 13.855469 19.351562 L 13.898438 19.351562 L 13.988281 18.949219 L 14.121094 18.257812 Z M 14.144531 18.234375 "/>
<path style=" stroke:none;fill-rule:nonzero;fill:rgb(8.627451%,8.235294%,8.627451%);fill-opacity:1;" d="M 12.894531 25.003906 L 13.878906 25.25 L 14.660156 25.386719 L 15.398438 25.453125 L 16.15625 25.453125 L 16.671875 25.429688 L 17.320312 25.363281 L 18.035156 25.230469 L 18.257812 25.183594 L 18.390625 25.207031 L 18.613281 25.363281 L 18.925781 25.496094 L 19.082031 25.542969 L 19.0625 25.585938 L 18.703125 25.699219 L 18.101562 25.855469 L 17.632812 25.945312 L 16.9375 26.035156 L 16.492188 26.078125 L 16.042969 26.101562 L 15.753906 26.101562 L 15.039062 26.054688 L 14.167969 25.945312 L 13.675781 25.855469 L 13.09375 25.699219 L 12.761719 25.585938 L 12.714844 25.5625 L 12.714844 25.496094 L 12.828125 25.386719 L 12.871094 25.230469 Z M 12.894531 25.003906 "/>
<path style=" stroke:none;fill-rule:nonzero;fill:rgb(0.784314%,0.392157%,0.784314%);fill-opacity:1;" d="M 20.492188 10.300781 L 20.535156 10.324219 L 20.535156 10.503906 L 20.960938 12.625 L 21.050781 12.894531 L 21.230469 13.117188 L 21.40625 13.320312 L 21.496094 13.476562 L 21.476562 13.675781 L 21.386719 14.054688 L 21.230469 14.300781 L 21.117188 14.28125 L 20.9375 14.191406 L 20.960938 14.28125 L 20.960938 14.480469 L 20.894531 14.59375 L 20.804688 14.570312 L 20.738281 14.480469 L 20.648438 14.191406 L 20.445312 13.832031 L 20.378906 13.609375 L 20.359375 13.453125 L 20.359375 12.9375 L 20.132812 12.46875 L 19.957031 12.132812 L 19.910156 12.023438 L 19.910156 11.910156 L 20.089844 11.621094 L 20.222656 11.308594 L 20.335938 10.949219 L 20.402344 10.480469 Z M 20.492188 10.300781 "/>
<path style=" stroke:none;fill-rule:nonzero;fill:rgb(0.784314%,0.784314%,0.784314%);fill-opacity:1;" d="M 11.441406 3.308594 L 11.664062 3.308594 L 11.957031 3.351562 L 12.113281 3.417969 L 12.042969 3.664062 L 11.957031 3.886719 L 11.84375 3.867188 L 11.6875 3.820312 L 11.398438 3.820312 L 11.195312 3.910156 L 11.0625 4.023438 L 10.972656 4.199219 L 10.949219 4.269531 L 10.949219 4.558594 L 11.039062 4.78125 L 11.21875 4.984375 L 11.441406 5.074219 L 11.664062 5.074219 L 11.867188 5.003906 L 12.042969 4.871094 L 12.179688 4.671875 L 12.199219 4.625 L 12.335938 4.648438 L 12.648438 4.804688 L 12.601562 4.9375 L 12.46875 5.140625 L 12.378906 5.25 L 12.089844 5.476562 L 11.867188 5.5625 L 11.710938 5.609375 L 11.464844 5.632812 L 11.171875 5.585938 L 10.816406 5.40625 L 10.726562 5.339844 L 10.726562 5.296875 L 10.679688 5.296875 L 10.503906 5.050781 L 10.390625 4.78125 L 10.347656 4.582031 L 10.347656 4.378906 L 10.414062 4.089844 L 10.570312 3.800781 L 10.660156 3.6875 L 10.882812 3.507812 L 11.152344 3.375 Z M 11.441406 3.308594 "/>
<path style=" stroke:none;fill-rule:nonzero;fill:rgb(0.784314%,0.784314%,0.784314%);fill-opacity:1;" d="M 14.035156 2.636719 L 14.101562 2.636719 L 14.144531 2.839844 L 14.167969 3.0625 L 13.964844 3.128906 L 13.183594 3.285156 L 13.117188 3.285156 L 13.230469 3.777344 L 13.808594 3.664062 L 14.121094 3.597656 L 14.210938 3.621094 L 14.28125 3.933594 L 14.28125 4.042969 L 13.386719 4.222656 L 13.339844 4.246094 L 13.363281 4.46875 L 13.453125 4.917969 L 13.453125 5.050781 L 12.9375 5.160156 L 12.894531 5.140625 L 12.46875 3.039062 L 12.492188 2.949219 L 13.921875 2.660156 Z M 14.035156 2.636719 "/>
<path style=" stroke:none;fill-rule:nonzero;fill:rgb(99.215686%,99.215686%,99.215686%);fill-opacity:1;" d="M 25.808594 18.011719 L 26.613281 18.035156 L 28.132812 18.054688 L 28.132812 18.121094 L 27.640625 18.390625 L 27.171875 18.660156 L 26.769531 18.882812 L 26.28125 19.152344 L 26.011719 19.308594 L 25.652344 19.484375 L 25.40625 19.621094 L 25.363281 19.621094 L 25.386719 19.417969 L 25.5625 18.882812 L 25.789062 18.035156 Z M 25.808594 18.011719 "/>
<path style=" stroke:none;fill-rule:nonzero;fill:rgb(0.784314%,0.784314%,0.784314%);fill-opacity:1;" d="M 20 3.152344 L 20.199219 3.21875 L 21.09375 3.574219 L 21.742188 3.84375 L 21.789062 3.867188 L 21.742188 3.976562 L 21.632812 4.269531 L 21.476562 4.246094 L 21.074219 4.089844 L 20.984375 4.089844 L 20.671875 4.847656 L 20.402344 5.519531 L 20.3125 5.699219 L 20.023438 5.585938 L 19.800781 5.496094 L 19.867188 5.273438 L 20.199219 4.445312 L 20.425781 3.886719 L 20.402344 3.820312 L 19.910156 3.621094 L 19.84375 3.574219 L 19.910156 3.375 Z M 20 3.152344 "/>
<path style=" stroke:none;fill-rule:nonzero;fill:rgb(81.960785%,83.92157%,87.058824%);fill-opacity:1;" d="M 15.597656 2.996094 L 15.753906 2.996094 L 15.976562 3.0625 L 16.113281 3.152344 L 16.246094 3.351562 L 16.3125 3.554688 L 16.3125 3.777344 L 16.246094 3.976562 L 16.15625 4.113281 L 15.976562 4.269531 L 15.777344 4.335938 L 15.597656 4.335938 L 15.351562 4.246094 L 15.171875 4.066406 L 15.0625 3.84375 L 15.0625 3.484375 L 15.171875 3.261719 L 15.261719 3.152344 L 15.441406 3.039062 Z M 15.597656 2.996094 "/>
<path style=" stroke:none;fill-rule:nonzero;fill:rgb(98.823529%,98.823529%,99.215686%);fill-opacity:1;" d="M 18.210938 3.238281 L 18.457031 3.261719 L 18.660156 3.351562 L 18.839844 3.554688 L 18.90625 3.730469 L 18.90625 4.042969 L 18.816406 4.269531 L 18.660156 4.445312 L 18.523438 4.535156 L 18.347656 4.582031 L 18.191406 4.582031 L 17.945312 4.492188 L 17.789062 4.359375 L 17.675781 4.132812 L 17.652344 4.066406 L 17.652344 3.800781 L 17.765625 3.53125 L 17.855469 3.417969 L 18.054688 3.285156 Z M 18.210938 3.238281 "/>
<path style=" stroke:none;fill-rule:nonzero;fill:rgb(98.823529%,98.823529%,99.215686%);fill-opacity:1;" d="M 4.601562 18.011719 L 5.988281 18.011719 L 6.035156 18.054688 L 6.234375 18.859375 L 6.347656 19.195312 L 6.347656 19.308594 L 6.191406 19.238281 L 5.988281 19.105469 L 5.585938 18.882812 L 5.050781 18.570312 L 4.558594 18.28125 L 4.269531 18.121094 L 4.269531 18.054688 L 4.335938 18.035156 Z M 4.601562 18.011719 "/>
<path style=" stroke:none;fill-rule:nonzero;fill:rgb(81.960785%,83.92157%,87.058824%);fill-opacity:1;" d="M 16.582031 4.425781 L 16.601562 4.492188 L 16.601562 5.898438 L 16.691406 5.921875 L 16.179688 5.921875 L 15.800781 5.898438 L 15.84375 5.878906 L 15.820312 4.78125 L 16.132812 4.714844 L 16.402344 4.582031 Z M 16.582031 4.425781 "/>
<path style=" stroke:none;fill-rule:nonzero;fill:rgb(97.254902%,97.254902%,97.647059%);fill-opacity:1;" d="M 3.800781 15.976562 L 4.289062 15.976562 L 4.492188 16.042969 L 4.625 16.15625 L 4.691406 16.289062 L 4.691406 16.558594 L 4.601562 16.738281 L 4.492188 16.828125 L 4.378906 16.871094 L 4.113281 16.894531 L 3.867188 16.894531 L 3.800781 16.871094 L 3.800781 16.761719 L 3.867188 16.691406 L 3.867188 16.179688 L 3.800781 16.066406 Z M 3.800781 15.976562 "/>
<path style=" stroke:none;fill-rule:nonzero;fill:rgb(97.254902%,97.647059%,98.039216%);fill-opacity:1;" d="M 6.660156 18.011719 L 6.882812 18.011719 L 6.949219 18.144531 L 7.128906 18.792969 L 7.375 19.484375 L 7.621094 20.023438 L 7.597656 20.199219 L 7.417969 20.15625 L 7.375 20.179688 L 7.105469 19.597656 L 6.839844 18.859375 L 6.679688 18.28125 L 6.636719 18.035156 Z M 6.660156 18.011719 "/>
<path style=" stroke:none;fill-rule:nonzero;fill:rgb(97.254902%,97.647059%,98.039216%);fill-opacity:1;" d="M 4.023438 14.703125 L 4.199219 14.703125 L 4.3125 14.75 L 4.3125 14.792969 L 4.402344 14.726562 L 4.625 14.726562 L 4.625 15.039062 L 4.601562 15.0625 L 4.445312 15.0625 L 4.3125 14.949219 L 4.15625 14.925781 L 4.15625 14.996094 L 4.515625 15.171875 L 4.625 15.261719 L 4.648438 15.417969 L 4.601562 15.53125 L 4.46875 15.640625 L 4.15625 15.640625 L 4.113281 15.597656 L 4.023438 15.621094 L 3.886719 15.640625 L 3.777344 15.621094 L 3.777344 15.351562 L 3.800781 15.285156 L 4.023438 15.328125 L 4.179688 15.417969 L 4.269531 15.417969 L 4.269531 15.351562 L 3.976562 15.238281 L 3.820312 15.105469 L 3.800781 14.925781 L 3.886719 14.792969 L 3.957031 14.726562 Z M 4.023438 14.703125 "/>
<path style=" stroke:none;fill-rule:nonzero;fill:rgb(1.176471%,1.176471%,1.176471%);fill-opacity:1;" d="M 17.296875 15.621094 L 17.40625 15.640625 L 17.429688 15.753906 L 17.339844 16.089844 L 17.183594 16.335938 L 17.050781 16.515625 L 16.984375 16.582031 L 17.050781 16.601562 L 17.25 16.535156 L 17.429688 16.378906 L 17.609375 16.179688 L 17.71875 16.199219 L 17.742188 16.289062 L 17.5625 16.535156 L 17.386719 16.691406 L 17.09375 16.804688 L 16.847656 16.828125 L 16.714844 16.804688 L 16.445312 16.984375 L 16.15625 17.117188 L 16.089844 17.117188 L 16.023438 17.027344 L 16.042969 16.960938 L 16.425781 16.761719 L 16.671875 16.582031 L 16.9375 16.335938 L 17.117188 16.066406 L 17.207031 15.84375 L 17.25 15.640625 Z M 17.296875 15.621094 "/>
<path style=" stroke:none;fill-rule:nonzero;fill:rgb(97.254902%,97.647059%,98.039216%);fill-opacity:1;" d="M 28.691406 14.613281 L 28.894531 14.660156 L 29.027344 14.816406 L 29.074219 14.949219 L 29.074219 15.238281 L 28.984375 15.441406 L 28.871094 15.53125 L 28.804688 15.554688 L 28.582031 15.554688 L 28.445312 15.464844 L 28.359375 15.308594 L 28.335938 15.21875 L 28.335938 14.972656 L 28.425781 14.75 L 28.535156 14.660156 Z M 28.691406 14.613281 "/>
<path style=" stroke:none;fill-rule:nonzero;fill:rgb(82.352942%,83.92157%,87.058824%);fill-opacity:1;" d="M 2.480469 14.726562 L 3.238281 14.726562 L 3.261719 14.859375 L 3.238281 14.996094 L 3.195312 15.015625 L 3.0625 15.015625 L 3.015625 14.925781 L 2.90625 14.90625 L 2.839844 14.925781 L 2.839844 15.0625 L 3.039062 15.082031 L 3.082031 15.171875 L 3.039062 15.238281 L 2.816406 15.261719 L 2.816406 15.464844 L 3.039062 15.464844 L 3.0625 15.351562 L 3.105469 15.328125 L 3.238281 15.351562 L 3.261719 15.484375 L 3.261719 15.621094 L 3.152344 15.640625 L 2.457031 15.621094 L 2.4375 15.574219 L 2.457031 15.507812 L 2.523438 15.464844 L 2.523438 14.925781 L 2.457031 14.839844 Z M 2.480469 14.726562 "/>
<path style=" stroke:none;fill-rule:nonzero;fill:rgb(1.176471%,1.176471%,1.176471%);fill-opacity:1;" d="M 16.515625 17.183594 L 16.601562 17.183594 L 16.625 17.339844 L 16.402344 17.496094 L 16.042969 17.675781 L 15.621094 17.878906 L 15.261719 17.988281 L 14.949219 18.054688 L 14.480469 18.101562 L 14.347656 18.101562 L 14.28125 18.054688 L 14.28125 17.921875 L 14.300781 17.898438 L 14.816406 17.855469 L 15.375 17.742188 L 15.820312 17.5625 L 16.289062 17.320312 Z M 16.515625 17.183594 "/>
<path style=" stroke:none;fill-rule:nonzero;fill:rgb(97.254902%,97.647059%,98.039216%);fill-opacity:1;" d="M 28.691406 15.886719 L 28.960938 15.886719 L 28.984375 16.023438 L 28.984375 16.289062 L 29.027344 16.425781 L 29.003906 16.601562 L 29.050781 16.691406 L 29.050781 16.78125 L 28.960938 16.804688 L 28.738281 16.804688 L 28.601562 16.78125 L 28.625 16.648438 L 28.691406 16.535156 L 28.335938 16.535156 L 28.3125 16.425781 L 28.378906 16.269531 L 28.625 15.976562 Z M 28.691406 15.886719 "/>
<path style=" stroke:none;fill-rule:nonzero;fill:rgb(81.960785%,83.92157%,87.058824%);fill-opacity:1;" d="M 2.4375 15.976562 L 3.285156 15.976562 L 3.308594 16 L 3.285156 16.3125 L 3.21875 16.335938 L 3.152344 16.3125 L 3.105469 16.179688 L 3.039062 16.15625 L 3.015625 16.671875 L 3.015625 16.714844 L 3.105469 16.738281 L 3.128906 16.871094 L 2.613281 16.871094 L 2.636719 16.761719 L 2.703125 16.714844 L 2.726562 16.445312 L 2.726562 16.179688 L 2.636719 16.179688 L 2.59375 16.3125 L 2.480469 16.335938 L 2.4375 16.289062 Z M 2.4375 15.976562 "/>
<path style=" stroke:none;fill-rule:nonzero;fill:rgb(96.862745%,96.862745%,97.647059%);fill-opacity:1;" d="M 27.664062 15.886719 L 27.910156 15.886719 L 28.066406 15.976562 L 28.113281 16.089844 L 28.113281 16.246094 L 28.023438 16.378906 L 27.753906 16.558594 L 27.753906 16.601562 L 27.910156 16.582031 L 28.023438 16.515625 L 28.132812 16.515625 L 28.15625 16.558594 L 28.15625 16.78125 L 28.132812 16.804688 L 27.507812 16.804688 L 27.441406 16.761719 L 27.464844 16.558594 L 27.574219 16.425781 L 27.800781 16.246094 L 27.84375 16.199219 L 27.867188 16.113281 L 27.507812 16.132812 L 27.464844 16.023438 Z M 27.664062 15.886719 "/>
<path style=" stroke:none;fill-rule:nonzero;fill:rgb(97.254902%,97.254902%,97.647059%);fill-opacity:1;" d="M 27.664062 14.636719 L 27.910156 14.636719 L 28.066406 14.769531 L 28.089844 14.839844 L 28.089844 15.015625 L 28 15.128906 L 27.777344 15.285156 L 27.730469 15.285156 L 27.730469 15.351562 L 27.886719 15.328125 L 28 15.261719 L 28.113281 15.261719 L 28.132812 15.308594 L 28.132812 15.53125 L 28.089844 15.554688 L 27.464844 15.554688 L 27.417969 15.53125 L 27.441406 15.328125 L 27.597656 15.152344 L 27.820312 14.949219 L 27.84375 14.859375 L 27.710938 14.859375 L 27.554688 14.90625 L 27.464844 14.859375 L 27.464844 14.75 L 27.597656 14.660156 Z M 27.664062 14.636719 "/>
<path style=" stroke:none;fill-rule:nonzero;fill:rgb(98.039216%,98.431373%,98.431373%);fill-opacity:1;" d="M 19.933594 23.800781 L 20.042969 23.84375 L 20.246094 23.976562 L 20.289062 24.066406 L 20.269531 24.289062 L 20.132812 24.558594 L 19.800781 24.625 L 19.710938 24.601562 L 19.664062 24.558594 L 19.574219 24.222656 L 19.574219 24.113281 L 19.886719 23.84375 Z M 19.933594 23.800781 "/>
<path style=" stroke:none;fill-rule:nonzero;fill:rgb(98.039216%,98.431373%,98.431373%);fill-opacity:1;" d="M 18.570312 23.464844 L 18.925781 23.464844 L 19.015625 23.820312 L 19.039062 23.933594 L 18.925781 24.042969 L 18.679688 24.269531 L 18.59375 24.246094 L 18.367188 24.066406 L 18.324219 23.976562 L 18.347656 23.777344 L 18.4375 23.554688 L 18.503906 23.484375 Z M 18.570312 23.464844 "/>
<path style=" stroke:none;fill-rule:nonzero;fill:rgb(98.039216%,98.039216%,98.431373%);fill-opacity:1;" d="M 13.40625 3.21875 L 13.652344 3.21875 L 13.878906 3.375 L 14.167969 3.53125 L 14.167969 3.574219 L 14.121094 3.574219 L 14.121094 3.621094 L 13.273438 3.800781 L 13.207031 3.777344 L 13.117188 3.375 L 13.117188 3.285156 Z M 13.40625 3.21875 "/>
<path style=" stroke:none;fill-rule:nonzero;fill:rgb(1.960784%,1.568628%,1.960784%);fill-opacity:1;" d="M 19.0625 16.3125 L 19.417969 16.3125 L 19.554688 16.378906 L 19.640625 16.46875 L 19.640625 16.515625 L 19.507812 16.515625 L 19.398438 16.46875 L 19.015625 16.46875 L 18.546875 16.582031 L 18.167969 16.738281 L 17.832031 16.9375 L 17.609375 17.140625 L 17.476562 17.339844 L 17.40625 17.675781 L 17.320312 17.652344 L 17.296875 17.609375 L 17.296875 17.40625 L 17.40625 17.183594 L 17.5625 16.984375 L 17.789062 16.804688 L 18.121094 16.601562 L 18.4375 16.46875 L 18.792969 16.359375 Z M 19.0625 16.3125 "/>
<path style=" stroke:none;fill-rule:nonzero;fill:rgb(99.607843%,99.607843%,99.607843%);fill-opacity:1;" d="M 2.28125 12.269531 L 2.324219 12.3125 L 2.324219 13.832031 L 1.921875 13.832031 L 1.945312 13.652344 L 2.054688 13.160156 L 2.167969 12.625 L 2.257812 12.289062 Z M 2.28125 12.269531 "/>
<path style=" stroke:none;fill-rule:nonzero;fill:rgb(1.568628%,1.176471%,1.568628%);fill-opacity:1;" d="M 16.15625 15.867188 L 16.222656 15.867188 L 16.246094 16.023438 L 15.84375 16.246094 L 15.53125 16.378906 L 15.238281 16.46875 L 15.082031 16.492188 L 14.859375 16.492188 L 14.679688 16.425781 L 14.59375 16.3125 L 14.613281 16.179688 L 14.703125 16.179688 L 14.859375 16.269531 L 14.949219 16.289062 L 15.105469 16.289062 L 15.441406 16.199219 L 15.933594 15.976562 Z M 16.15625 15.867188 "/>
<path style=" stroke:none;fill-rule:nonzero;fill:rgb(1.960784%,1.960784%,1.960784%);fill-opacity:1;" d="M 17.25 9.117188 L 17.363281 9.230469 L 17.496094 9.386719 L 17.496094 9.429688 L 17.585938 9.476562 L 17.699219 9.5625 L 17.921875 9.675781 L 18.121094 9.71875 L 18.570312 9.71875 L 18.859375 9.632812 L 19.0625 9.496094 L 19.195312 9.339844 L 19.285156 9.207031 L 19.375 9.230469 L 19.351562 9.339844 L 19.21875 9.542969 L 19.0625 9.675781 L 18.839844 9.789062 L 18.480469 9.878906 L 18.191406 9.878906 L 17.832031 9.789062 L 17.585938 9.652344 L 17.320312 9.40625 L 17.230469 9.273438 L 17.230469 9.140625 Z M 17.25 9.117188 "/>
<path style=" stroke:none;fill-rule:nonzero;fill:rgb(1.568628%,1.568628%,1.568628%);fill-opacity:1;" d="M 19.152344 14.726562 L 19.261719 14.75 L 19.285156 14.769531 L 19.285156 14.996094 L 19.171875 15.171875 L 18.972656 15.308594 L 18.726562 15.398438 L 18.367188 15.464844 L 18.167969 15.484375 L 17.898438 15.484375 L 17.832031 15.417969 L 17.855469 15.308594 L 17.964844 15.285156 L 18.523438 15.238281 L 18.859375 15.152344 L 19.015625 15.0625 L 19.082031 14.949219 L 19.105469 14.769531 Z M 19.152344 14.726562 "/>
<path style=" stroke:none;fill-rule:nonzero;fill:rgb(1.960784%,1.568628%,1.960784%);fill-opacity:1;" d="M 16.246094 16.445312 L 16.335938 16.445312 L 16.3125 16.558594 L 16.066406 16.738281 L 15.574219 17.027344 L 15.21875 17.207031 L 14.859375 17.339844 L 14.679688 17.386719 L 14.457031 17.386719 L 14.210938 17.320312 L 14.191406 17.207031 L 14.257812 17.183594 L 14.414062 17.230469 L 14.679688 17.230469 L 14.996094 17.140625 L 15.398438 16.960938 L 15.800781 16.738281 L 16.089844 16.535156 Z M 16.246094 16.445312 "/>
<path style=" stroke:none;fill-rule:nonzero;fill:rgb(1.568628%,1.568628%,1.568628%);fill-opacity:1;" d="M 18.75 15.664062 L 19.039062 15.664062 L 19.238281 15.730469 L 19.308594 15.84375 L 19.285156 15.910156 L 19.105469 15.910156 L 19.015625 15.886719 L 18.679688 15.886719 L 18.234375 16 L 17.988281 16.089844 L 17.878906 16.066406 L 17.832031 15.957031 L 17.921875 15.886719 L 18.390625 15.730469 Z M 18.75 15.664062 "/>
<path style=" stroke:none;fill-rule:nonzero;fill:rgb(1.568628%,1.568628%,1.568628%);fill-opacity:1;" d="M 19.933594 9.074219 L 20.066406 9.09375 L 20.246094 9.230469 L 20.378906 9.40625 L 20.46875 9.675781 L 20.46875 9.964844 L 20.378906 10.324219 L 20.335938 10.390625 L 20.199219 10.367188 L 20.199219 10.210938 L 20.269531 9.921875 L 20.246094 9.652344 L 20.132812 9.429688 L 19.957031 9.273438 L 19.867188 9.183594 L 19.910156 9.09375 Z M 19.933594 9.074219 "/>
<path style=" stroke:none;fill-rule:nonzero;fill:rgb(1.960784%,1.960784%,1.960784%);fill-opacity:1;" d="M 16.78125 21.5625 L 16.847656 21.5625 L 16.9375 21.832031 L 17.117188 21.945312 L 17.386719 22.035156 L 17.40625 22.121094 L 17.273438 22.144531 L 17.050781 22.078125 L 17.050781 22.546875 L 17.117188 22.679688 L 17.25 22.75 L 17.5625 22.769531 L 17.585938 22.859375 L 17.386719 22.90625 L 17.183594 22.882812 L 17.027344 22.792969 L 16.9375 22.660156 L 16.894531 22.390625 L 16.9375 22.167969 L 16.984375 22.035156 L 16.847656 21.945312 L 16.761719 21.789062 L 16.761719 21.585938 Z M 16.78125 21.5625 "/>
<path style=" stroke:none;fill-rule:nonzero;fill:rgb(1.960784%,1.960784%,1.960784%);fill-opacity:1;" d="M 16.132812 9.273438 L 16.179688 9.296875 L 16.15625 9.386719 L 15.957031 9.519531 L 15.710938 9.675781 L 15.464844 9.898438 L 15.351562 10.101562 L 15.351562 10.347656 L 15.464844 10.570312 L 15.554688 10.703125 L 15.53125 10.769531 L 15.417969 10.726562 L 15.261719 10.546875 L 15.195312 10.390625 L 15.195312 10.121094 L 15.285156 9.921875 L 15.417969 9.742188 L 15.621094 9.5625 L 15.933594 9.363281 Z M 16.132812 9.273438 "/>
<path style=" stroke:none;fill-rule:nonzero;fill:rgb(9.019608%,8.627451%,9.019608%);fill-opacity:1;" d="M 4.671875 6.324219 L 4.714844 6.347656 L 4.222656 6.972656 L 3.976562 7.308594 L 3.710938 7.710938 L 3.554688 7.933594 L 3.351562 8.246094 L 3.105469 8.648438 L 2.816406 9.140625 L 2.636719 9.496094 L 2.390625 9.964844 L 2.121094 10.59375 L 1.878906 11.21875 L 1.789062 11.464844 L 1.765625 11.398438 L 1.988281 10.769531 L 2.210938 10.234375 L 2.414062 9.789062 L 2.636719 9.339844 L 2.90625 8.847656 L 3.152344 8.445312 L 3.417969 8.023438 L 3.6875 7.621094 L 3.867188 7.375 L 4.15625 6.949219 L 4.558594 6.457031 Z M 4.671875 6.324219 "/>
<path style=" stroke:none;fill-rule:nonzero;fill:rgb(81.960785%,83.92157%,87.058824%);fill-opacity:1;" d="M 18.210938 3.238281 L 18.457031 3.261719 L 18.59375 3.308594 L 18.59375 3.328125 L 18.457031 3.375 L 18.4375 3.441406 L 18.011719 3.6875 L 17.832031 3.800781 L 17.675781 3.820312 L 17.675781 4.066406 L 17.652344 4.066406 L 17.652344 3.800781 L 17.765625 3.53125 L 17.855469 3.417969 L 18.054688 3.285156 Z M 18.210938 3.238281 "/>
<path style=" stroke:none;fill-rule:nonzero;fill:rgb(97.647059%,97.647059%,98.039216%);fill-opacity:1;" d="M 19.351562 22.839844 L 19.574219 22.839844 L 19.800781 22.90625 L 20 23.039062 L 20.023438 23.152344 L 19.84375 23.285156 L 19.730469 23.261719 L 19.554688 23.195312 L 19.328125 23.152344 L 19.285156 23.082031 L 19.261719 22.882812 Z M 19.351562 22.839844 "/>
<path style=" stroke:none;fill-rule:nonzero;fill:rgb(1.176471%,1.176471%,1.176471%);fill-opacity:1;" d="M 19.554688 11.976562 L 19.664062 11.976562 L 19.710938 12.066406 L 19.597656 12.335938 L 19.398438 12.671875 L 19.238281 12.828125 L 19.128906 12.871094 L 18.996094 12.847656 L 18.972656 12.738281 L 19.171875 12.582031 L 19.308594 12.402344 L 19.53125 12 Z M 19.554688 11.976562 "/>
<path style=" stroke:none;fill-rule:nonzero;fill:rgb(1.960784%,1.960784%,1.960784%);fill-opacity:1;" d="M 16.402344 10.167969 L 16.515625 10.210938 L 16.515625 10.59375 L 16.425781 10.949219 L 16.269531 11.261719 L 16.066406 11.53125 L 15.957031 11.664062 L 15.886719 11.664062 L 15.867188 11.554688 L 16.132812 11.21875 L 16.269531 10.949219 L 16.359375 10.613281 L 16.378906 10.191406 Z M 16.402344 10.167969 "/>
<path style=" stroke:none;fill-rule:nonzero;fill:rgb(1.960784%,1.960784%,1.960784%);fill-opacity:1;" d="M 13.027344 20.492188 L 13.117188 20.535156 L 13.296875 20.804688 L 13.453125 20.960938 L 13.632812 21.050781 L 13.878906 21.09375 L 14.144531 21.050781 L 14.300781 21.003906 L 14.390625 21.003906 L 14.367188 21.09375 L 14.167969 21.183594 L 13.921875 21.230469 L 13.699219 21.230469 L 13.429688 21.117188 L 13.230469 20.960938 L 13.074219 20.738281 L 13.027344 20.648438 Z M 13.027344 20.492188 "/>
<path style=" stroke:none;fill-rule:nonzero;fill:rgb(83.137256%,84.705883%,87.843138%);fill-opacity:1;" d="M 7.195312 19.464844 L 7.308594 19.464844 L 7.375 19.484375 L 7.621094 20.023438 L 7.597656 20.199219 L 7.417969 20.15625 L 7.375 20.179688 L 7.105469 19.597656 L 7.128906 19.484375 Z M 7.195312 19.464844 "/>
<path style=" stroke:none;fill-rule:nonzero;fill:rgb(1.960784%,1.960784%,1.960784%);fill-opacity:1;" d="M 16.289062 15.484375 L 16.402344 15.484375 L 16.378906 15.574219 L 16.199219 15.664062 L 15.464844 15.910156 L 15.152344 15.957031 L 14.972656 15.957031 L 14.839844 15.867188 L 14.75 15.777344 L 14.769531 15.710938 L 14.882812 15.730469 L 14.996094 15.800781 L 15.195312 15.820312 L 15.554688 15.753906 L 16.179688 15.53125 Z M 16.289062 15.484375 "/>
<path style=" stroke:none;fill-rule:nonzero;fill:rgb(97.254902%,97.254902%,97.647059%);fill-opacity:1;" d="M 18.769531 24.78125 L 18.882812 24.804688 L 19.0625 24.894531 L 19.285156 24.917969 L 19.375 25.117188 L 19.375 25.183594 L 19.328125 25.207031 L 19.039062 25.207031 L 18.816406 25.117188 L 18.636719 24.984375 L 18.679688 24.871094 Z M 18.769531 24.78125 "/>
<path style=" stroke:none;fill-rule:nonzero;fill:rgb(2.352941%,1.960784%,2.352941%);fill-opacity:1;" d="M 17.652344 19.152344 L 17.742188 19.171875 L 17.921875 19.464844 L 18.121094 19.6875 L 18.324219 19.800781 L 18.523438 19.84375 L 18.769531 19.820312 L 18.972656 19.800781 L 18.972656 19.886719 L 18.769531 19.957031 L 18.636719 19.976562 L 18.414062 19.976562 L 18.054688 19.800781 L 17.945312 19.710938 L 17.742188 19.441406 L 17.652344 19.261719 Z M 17.652344 19.152344 "/>
<path style=" stroke:none;fill-rule:nonzero;fill:rgb(9.019608%,8.627451%,9.019608%);fill-opacity:1;" d="M 27.238281 17.964844 L 27.820312 17.964844 L 30.347656 17.988281 L 30.324219 18.234375 L 30.300781 18.234375 L 30.300781 18.078125 L 30.324219 18.011719 L 30.234375 18.035156 L 25.855469 18.035156 L 25.832031 17.988281 Z M 27.238281 17.964844 "/>
<path style=" stroke:none;fill-rule:nonzero;fill:rgb(1.568628%,1.568628%,1.568628%);fill-opacity:1;" d="M 17.742188 13.40625 L 17.832031 13.496094 L 17.808594 13.585938 L 17.609375 13.808594 L 17.453125 13.964844 L 17.296875 14.078125 L 17.230469 13.988281 L 17.230469 13.878906 L 17.320312 13.832031 L 17.339844 13.765625 L 17.519531 13.609375 L 17.699219 13.429688 Z M 17.742188 13.40625 "/>
<path style=" stroke:none;fill-rule:nonzero;fill:rgb(1.568628%,1.568628%,1.568628%);fill-opacity:1;" d="M 18.257812 12.648438 L 18.367188 12.648438 L 18.390625 12.671875 L 18.390625 12.78125 L 18.234375 13.050781 L 18.078125 13.25 L 17.988281 13.296875 L 17.898438 13.207031 L 17.945312 13.09375 L 18.191406 12.714844 Z M 18.257812 12.648438 "/>
<path style=" stroke:none;fill-rule:nonzero;fill:rgb(1.568628%,1.568628%,1.568628%);fill-opacity:1;" d="M 4.15625 16.15625 L 4.3125 16.179688 L 4.378906 16.246094 L 4.402344 16.335938 L 4.402344 16.535156 L 4.335938 16.671875 L 4.269531 16.714844 L 4.15625 16.691406 Z M 4.15625 16.15625 "/>
<path style=" stroke:none;fill-rule:nonzero;fill:rgb(3.529412%,3.529412%,3.529412%);fill-opacity:1;" d="M 11.6875 24.199219 L 11.820312 24.222656 L 12.066406 24.3125 L 12.246094 24.335938 L 12.46875 24.289062 L 12.558594 24.289062 L 12.535156 24.378906 L 12.378906 24.46875 L 12.113281 24.46875 L 11.820312 24.378906 L 11.664062 24.269531 Z M 11.6875 24.199219 "/>
<path style=" stroke:none;fill-rule:nonzero;fill:rgb(1.960784%,1.960784%,1.960784%);fill-opacity:1;" d="M 17.027344 22.191406 L 17.050781 22.28125 L 17.050781 22.546875 L 17.117188 22.679688 L 17.25 22.75 L 17.5625 22.769531 L 17.585938 22.859375 L 17.386719 22.90625 L 17.183594 22.882812 L 17.027344 22.792969 L 16.9375 22.660156 L 16.9375 22.59375 L 16.984375 22.59375 L 16.984375 22.300781 Z M 17.027344 22.191406 "/>
<path style=" stroke:none;fill-rule:nonzero;fill:rgb(1.960784%,1.568628%,1.960784%);fill-opacity:1;" d="M 28.648438 14.839844 L 28.761719 14.839844 L 28.804688 14.972656 L 28.804688 15.238281 L 28.78125 15.328125 L 28.648438 15.351562 L 28.601562 15.285156 L 28.582031 15.015625 L 28.625 14.859375 Z M 28.648438 14.839844 "/>
<path style=" stroke:none;fill-rule:nonzero;fill:rgb(2.352941%,1.960784%,2.352941%);fill-opacity:1;" d="M 14.101562 28.828125 L 14.121094 28.828125 L 14.101562 28.984375 L 14.078125 29.09375 L 14.144531 29.273438 L 14.144531 29.339844 L 14.234375 29.386719 L 14.078125 29.363281 L 13.832031 29.25 L 13.855469 29.117188 L 14.035156 28.871094 Z M 14.101562 28.828125 "/>
<path style=" stroke:none;fill-rule:nonzero;fill:rgb(9.019608%,8.627451%,9.019608%);fill-opacity:1;" d="M 6.546875 4.894531 L 6.59375 4.917969 L 6.28125 5.207031 L 6.234375 5.207031 L 6.234375 5.25 L 6.054688 5.40625 L 5.699219 5.742188 L 5.585938 5.878906 L 5.542969 5.878906 L 5.496094 5.964844 L 5.160156 6.324219 L 4.960938 6.570312 L 4.828125 6.679688 L 4.871094 6.59375 L 5.074219 6.367188 L 5.230469 6.191406 L 5.429688 5.964844 L 5.699219 5.675781 L 5.921875 5.453125 L 6.101562 5.296875 L 6.28125 5.117188 L 6.523438 4.917969 Z M 6.546875 4.894531 "/>
<path style=" stroke:none;fill-rule:nonzero;fill:rgb(2.352941%,2.352941%,2.352941%);fill-opacity:1;" d="M 12.113281 23.554688 L 12.378906 23.554688 L 12.492188 23.664062 L 12.515625 23.820312 L 12.425781 23.820312 L 12.359375 23.730469 L 12.359375 23.6875 L 12.222656 23.664062 L 11.910156 23.730469 L 11.867188 23.640625 L 12.023438 23.574219 Z M 12.113281 23.554688 "/>
<path style=" stroke:none;fill-rule:nonzero;fill:rgb(9.019608%,8.627451%,9.019608%);fill-opacity:1;" d="M 5.964844 4.984375 L 6.011719 5.003906 L 5.542969 5.476562 L 5.386719 5.652344 L 5.160156 5.878906 L 5.003906 6.054688 L 4.738281 6.324219 L 4.738281 6.257812 L 5.074219 5.898438 L 5.230469 5.71875 Z M 5.964844 4.984375 "/>
<path style=" stroke:none;fill-rule:nonzero;fill:rgb(98.823529%,98.823529%,99.215686%);fill-opacity:1;" d="M 3.171875 15.507812 L 3.195312 15.574219 L 3.238281 15.597656 L 3.152344 15.640625 L 2.457031 15.621094 L 2.4375 15.574219 L 2.457031 15.53125 L 2.75 15.554688 L 3.015625 15.554688 Z M 3.171875 15.507812 "/>
<path style=" stroke:none;fill-rule:nonzero;fill:rgb(81.960785%,83.92157%,87.058824%);fill-opacity:1;" d="M 24.625 19.261719 L 24.671875 19.261719 L 24.671875 19.398438 L 24.601562 19.621094 L 24.492188 19.777344 L 24.445312 19.886719 L 24.378906 19.910156 L 24.445312 19.6875 L 24.582031 19.351562 Z M 24.625 19.261719 "/>
<path style=" stroke:none;fill-rule:nonzero;fill:rgb(3.529412%,3.529412%,3.529412%);fill-opacity:1;" d="M 2.90625 14.882812 L 3.039062 14.925781 L 3.0625 14.996094 L 3.152344 15.039062 L 3.082031 15.039062 L 3.082031 15.152344 L 3.039062 15.105469 L 2.839844 15.082031 L 2.816406 15.0625 L 2.816406 14.925781 Z M 2.90625 14.882812 "/>
<path style=" stroke:none;fill-rule:nonzero;fill:rgb(6.27451%,6.27451%,6.27451%);fill-opacity:1;" d="M 17.003906 22.035156 L 17.117188 22.054688 L 17.050781 22.101562 L 17.027344 22.210938 L 17.003906 22.300781 L 17.003906 22.613281 L 16.917969 22.59375 L 16.894531 22.390625 L 16.9375 22.167969 Z M 17.003906 22.035156 "/>
<path style=" stroke:none;fill-rule:nonzero;fill:rgb(83.92157%,85.490197%,88.235295%);fill-opacity:1;" d="M 3.082031 15.328125 L 3.238281 15.351562 L 3.261719 15.484375 L 3.261719 15.621094 L 3.195312 15.597656 L 3.171875 15.53125 L 3.015625 15.554688 L 2.972656 15.507812 L 3.039062 15.484375 L 3.0625 15.351562 Z M 3.082031 15.328125 "/>
<path style=" stroke:none;fill-rule:nonzero;fill:rgb(81.960785%,83.92157%,87.058824%);fill-opacity:1;" d="M 15.867188 6.613281 L 16.601562 6.613281 L 16.601562 6.679688 L 16.515625 6.703125 L 15.84375 6.660156 Z M 15.867188 6.613281 "/>
<path style=" stroke:none;fill-rule:nonzero;fill:rgb(4.313726%,3.921569%,4.313726%);fill-opacity:1;" d="M 4.15625 14.90625 L 4.3125 14.925781 L 4.445312 15.039062 L 4.601562 15.0625 L 4.601562 15.082031 L 4.402344 15.128906 L 4.132812 14.996094 Z M 4.15625 14.90625 "/>
<path style=" stroke:none;fill-rule:nonzero;fill:rgb(81.960785%,83.92157%,87.058824%);fill-opacity:1;" d="M 15.933594 25.296875 L 16.582031 25.296875 L 16.78125 25.320312 L 16.78125 25.339844 L 16.601562 25.363281 L 15.730469 25.363281 L 15.753906 25.320312 Z M 15.933594 25.296875 "/>
<path style=" stroke:none;fill-rule:nonzero;fill:rgb(1.960784%,1.960784%,1.960784%);fill-opacity:1;" d="M 12.46875 24.289062 L 12.558594 24.289062 L 12.535156 24.378906 L 12.425781 24.445312 L 12.269531 24.445312 L 12.222656 24.402344 L 12.378906 24.3125 Z M 12.46875 24.289062 "/>
<path style=" stroke:none;fill-rule:nonzero;fill:rgb(4.313726%,4.313726%,4.313726%);fill-opacity:1;" d="M 4 15.285156 L 4.15625 15.285156 L 4.289062 15.351562 L 4.269531 15.441406 L 4.113281 15.417969 L 4 15.308594 Z M 4 15.285156 "/>
<path style=" stroke:none;fill-rule:nonzero;fill:rgb(8.627451%,8.235294%,8.627451%);fill-opacity:1;" d="M 2.636719 16.15625 L 2.75 16.179688 L 2.75 16.445312 L 2.726562 16.714844 L 2.660156 16.714844 L 2.679688 16.691406 L 2.703125 16.269531 L 2.660156 16.269531 L 2.613281 16.335938 L 2.546875 16.3125 L 2.59375 16.289062 Z M 2.636719 16.15625 "/>
<path style=" stroke:none;fill-rule:nonzero;fill:rgb(81.960785%,83.92157%,87.058824%);fill-opacity:1;" d="M 23.398438 10.390625 L 23.507812 10.457031 L 23.664062 10.703125 L 23.753906 10.816406 L 23.730469 10.882812 L 23.574219 10.679688 L 23.574219 10.636719 L 23.53125 10.636719 L 23.441406 10.503906 L 23.398438 10.457031 Z M 23.398438 10.390625 "/>
<path style=" stroke:none;fill-rule:nonzero;fill:rgb(3.529412%,3.529412%,3.529412%);fill-opacity:1;" d="M 17.652344 19.152344 L 17.742188 19.171875 L 17.808594 19.308594 L 17.808594 19.398438 L 17.789062 19.464844 L 17.71875 19.398438 L 17.652344 19.261719 Z M 17.652344 19.152344 "/>
<path style=" stroke:none;fill-rule:nonzero;fill:rgb(98.823529%,98.823529%,98.823529%);fill-opacity:1;" d="M 2.726562 16.738281 L 2.75 16.78125 L 2.949219 16.804688 L 2.972656 16.847656 L 2.816406 16.871094 L 2.613281 16.871094 L 2.660156 16.78125 Z M 2.726562 16.738281 "/>
<path style=" stroke:none;fill-rule:nonzero;fill:rgb(80.000001%,81.960785%,85.09804%);fill-opacity:1;" d="M 8.515625 10.210938 L 8.558594 10.210938 L 8.535156 10.300781 L 8.402344 10.480469 L 8.289062 10.59375 L 8.289062 10.523438 Z M 8.515625 10.210938 "/>
<path style=" stroke:none;fill-rule:nonzero;fill:rgb(8.235294%,7.843138%,8.235294%);fill-opacity:1;" d="M 28.648438 16.179688 L 28.691406 16.222656 L 28.691406 16.402344 L 28.582031 16.425781 L 28.535156 16.378906 Z M 28.648438 16.179688 "/>
<path style=" stroke:none;fill-rule:nonzero;fill:rgb(90.196079%,91.37255%,92.941177%);fill-opacity:1;" d="M 3.0625 16.738281 L 3.105469 16.738281 L 3.128906 16.871094 L 2.816406 16.871094 L 2.816406 16.847656 L 2.972656 16.828125 Z M 3.0625 16.738281 "/>
<path style=" stroke:none;fill-rule:nonzero;fill:rgb(1.960784%,1.960784%,1.960784%);fill-opacity:1;" d="M 18.769531 25.5625 L 18.972656 25.585938 L 18.949219 25.632812 L 18.792969 25.675781 L 18.636719 25.675781 L 18.679688 25.632812 L 18.769531 25.632812 Z M 18.769531 25.5625 "/>
<path style=" stroke:none;fill-rule:nonzero;fill:rgb(3.137255%,2.745098%,3.137255%);fill-opacity:1;" d="M 15.039062 27.484375 L 15.082031 27.484375 L 15.039062 27.597656 L 15.015625 27.710938 L 14.925781 27.710938 L 14.949219 27.597656 Z M 15.039062 27.484375 "/>
<path style=" stroke:none;fill-rule:nonzero;fill:rgb(1.176471%,1.176471%,1.176471%);fill-opacity:1;" d="M 15.597656 26.726562 L 15.640625 26.726562 L 15.640625 26.972656 L 15.53125 26.949219 L 15.574219 26.882812 L 15.574219 26.75 Z M 15.597656 26.726562 "/>
<path style=" stroke:none;fill-rule:nonzero;fill:rgb(4.313726%,4.313726%,4.313726%);fill-opacity:1;" d="M 19.664062 22.769531 L 19.800781 22.792969 L 19.753906 22.882812 L 19.574219 22.859375 Z M 19.664062 22.769531 "/>
<path style=" stroke:none;fill-rule:nonzero;fill:rgb(95.686275%,96.078432%,96.862745%);fill-opacity:1;" d="M 2.457031 15.53125 L 2.59375 15.554688 L 2.703125 15.597656 L 2.703125 15.621094 L 2.457031 15.621094 L 2.4375 15.574219 Z M 2.457031 15.53125 "/>
<path style=" stroke:none;fill-rule:nonzero;fill:rgb(5.098039%,4.705882%,5.098039%);fill-opacity:1;" d="M 17.003906 22.035156 L 17.117188 22.054688 L 17.050781 22.101562 L 17.027344 22.191406 L 16.9375 22.210938 L 16.984375 22.078125 Z M 17.003906 22.035156 "/>
<path style=" stroke:none;fill-rule:nonzero;fill:rgb(5.882353%,5.882353%,5.882353%);fill-opacity:1;" d="M 10.816406 3.554688 L 10.859375 3.574219 L 10.59375 3.84375 L 10.59375 3.777344 L 10.703125 3.664062 Z M 10.816406 3.554688 "/>
<path style=" stroke:none;fill-rule:nonzero;fill:rgb(3.921569%,3.529412%,3.921569%);fill-opacity:1;" d="M 11.128906 24.648438 L 11.152344 24.648438 L 11.152344 24.894531 L 11.039062 24.847656 L 11.039062 24.804688 L 11.105469 24.738281 Z M 11.128906 24.648438 "/>
</g>
</svg>
